<svg width="170" height="44" viewBox="0 0 170 44" fill="none" xmlns="http://www.w3.org/2000/svg">
<path d="M44.2718 29.8727H39.0113L37.976 26.7108H32.2398L31.2325 29.8727H26L31.8201 13H38.5916L44.2718 29.8727ZM35.1499 16.8055L33.2751 22.7375H36.9407L35.1499 16.8055ZM51.9946 29.8727H45.3911V13H52.3864C58.5143 13 61.9 16.3018 61.9 21.3105C61.872 26.515 58.3464 29.8727 51.9946 29.8727ZM51.9946 17.0853H50.6795V25.8154H52.2745C54.9327 25.8154 56.5276 24.5003 56.5276 21.5063C56.5276 18.3444 55.1006 17.0853 51.9946 17.0853ZM69.8187 29.8727H63.2152V13H70.2105C76.3384 13 79.7241 16.3018 79.7241 21.3105C79.6961 26.515 76.1705 29.8727 69.8187 29.8727ZM69.8467 17.0853H68.5316V25.8154H70.1265C72.7848 25.8154 74.3797 24.5003 74.3797 21.5063C74.3517 18.3444 72.9526 17.0853 69.8467 17.0853ZM81.347 29.8727V15.7142H85.8241V29.8727H81.347ZM96.2331 19.3518V29.8727H91.7561V19.3518H87.475V15.7142H100.514V19.3518H96.2331ZM108.629 30.2085C104.879 30.2085 102.025 28.5856 102.025 24.3045V15.7142H106.502V23.7728C106.502 25.6755 107.146 26.5709 108.713 26.5709C110.196 26.5709 110.811 25.8714 110.811 23.8847V15.7142H115.26V23.9407C115.232 28.3058 112.518 30.2085 108.629 30.2085ZM122.843 29.8727H117.303V15.7142H123.179C128.328 15.7142 131.154 18.4843 131.154 22.6815C131.154 27.0466 128.188 29.8727 122.843 29.8727ZM122.871 19.1279H121.752V26.459H123.095C125.306 26.459 126.649 25.3398 126.649 22.8214C126.649 20.1912 125.474 19.1279 122.871 19.1279ZM132.973 29.8727V15.7142H144.025V19.1839H137.31V21.0306H142.626V24.5003H137.31V26.4031H144.025V29.8727H132.973Z" fill="#522E5E"/>
</svg>
