<svg width="181" height="52" viewBox="0 0 181 52" fill="none" xmlns="http://www.w3.org/2000/svg">
<path d="M179.877 46.0029C179.877 48.774 177.585 51.0187 174.751 51.0187H7.00938C4.17645 51.0187 1.87695 48.774 1.87695 46.0029V6.00333C1.87695 3.23349 4.17645 0.980957 7.00938 0.980957H174.75C177.585 0.980957 179.876 3.23349 179.876 6.00333L179.877 46.0029Z" fill="black"/>
<path d="M174.21 1.04162C177.297 1.04162 179.809 3.4905 179.809 6.5V45.5C179.809 48.5095 177.297 50.9584 174.21 50.9584H7.54362C4.45695 50.9584 1.94529 48.5095 1.94529 45.5V6.5C1.94529 3.4905 4.45695 1.04162 7.54362 1.04162H174.21ZM174.21 2.74817e-06H7.54362C3.87862 2.74817e-06 0.876953 2.92663 0.876953 6.5V45.5C0.876953 49.0734 3.87862 52 7.54362 52H174.21C177.875 52 180.877 49.0734 180.877 45.5V6.5C180.877 2.92663 177.875 2.74817e-06 174.21 2.74817e-06Z" fill="#A6A6A6"/>
<path d="M41.0474 25.7191C41.0087 21.5292 44.5661 19.4908 44.7287 19.3959C42.7141 16.532 39.5914 16.1407 38.4941 16.1095C35.8714 15.8404 33.3274 17.6396 31.9914 17.6396C30.6287 17.6396 28.5714 16.1355 26.3541 16.1797C23.5007 16.2226 20.8314 17.8333 19.3674 20.3345C16.3461 25.4344 18.5994 32.9289 21.4941 37.0512C22.9421 39.0701 24.6341 41.3243 26.8487 41.245C29.0154 41.1579 29.8247 39.8982 32.4394 39.8982C35.0301 39.8982 35.7901 41.245 38.0487 41.1943C40.3741 41.1579 41.8381 39.1663 43.2354 37.1292C44.9087 34.8152 45.5807 32.5363 45.6074 32.4193C45.5527 32.4011 41.0914 30.741 41.0474 25.7191Z" fill="white"/>
<path d="M36.7807 13.3977C37.9461 11.9768 38.7434 10.0437 38.5221 8.08203C36.8354 8.15483 34.7261 9.21953 33.5114 10.6092C32.4367 11.8338 31.4767 13.841 31.7247 15.7286C33.6194 15.8664 35.5647 14.7965 36.7807 13.3977Z" fill="white"/>
<path d="M72.4038 40.9552H69.3758L67.7172 35.8735H61.9518L60.3718 40.9552H57.4238L63.1358 23.6548H66.6638L72.4038 40.9552ZM67.2172 33.7415L65.7172 29.224C65.5585 28.7625 65.2612 27.6757 64.8225 25.9649H64.7692C64.5945 26.7007 64.3132 27.7875 63.9265 29.224L62.4532 33.7415H67.2172Z" fill="white"/>
<path d="M87.0928 34.5647C87.0928 36.6863 86.5048 38.3633 85.3288 39.5944C84.2755 40.6903 82.9675 41.2376 81.4061 41.2376C79.7208 41.2376 78.5102 40.6474 77.7728 39.467H77.7195V46.0385H74.8768V32.5874C74.8768 31.2536 74.8408 29.8847 74.7715 28.4807H77.2715L77.4302 30.458H77.4835C78.4315 28.9682 79.8702 28.2246 81.8008 28.2246C83.3102 28.2246 84.5702 28.8057 85.5782 29.9692C86.5888 31.134 87.0928 32.6654 87.0928 34.5647ZM84.1968 34.6661C84.1968 33.4519 83.9168 32.4509 83.3542 31.6631C82.7395 30.8415 81.9141 30.4307 80.8795 30.4307C80.1781 30.4307 79.5408 30.6595 78.9715 31.1106C78.4008 31.5656 78.0275 32.1597 77.8528 32.8955C77.7648 33.2387 77.7208 33.5195 77.7208 33.7405V35.8205C77.7208 36.7279 78.0062 37.4936 78.5768 38.1189C79.1475 38.7442 79.8888 39.0562 80.8008 39.0562C81.8715 39.0562 82.7048 38.6532 83.3008 37.8498C83.8982 37.0451 84.1968 35.9843 84.1968 34.6661Z" fill="white"/>
<path d="M101.809 34.5647C101.809 36.6863 101.221 38.3633 100.044 39.5944C98.9919 40.6903 97.6839 41.2376 96.1226 41.2376C94.4373 41.2376 93.2266 40.6474 92.4906 39.467H92.4373V46.0385H89.5946V32.5874C89.5946 31.2536 89.5586 29.8847 89.4893 28.4807H91.9893L92.1479 30.458H92.2013C93.1479 28.9682 94.5866 28.2246 96.5186 28.2246C98.0266 28.2246 99.2866 28.8057 100.297 29.9692C101.304 31.134 101.809 32.6654 101.809 34.5647ZM98.9133 34.6661C98.9133 33.4519 98.6319 32.4509 98.0693 31.6631C97.4546 30.8415 96.6319 30.4307 95.5959 30.4307C94.8933 30.4307 94.2573 30.6595 93.6866 31.1106C93.1159 31.5656 92.7439 32.1597 92.5693 32.8955C92.4826 33.2387 92.4373 33.5195 92.4373 33.7405V35.8205C92.4373 36.7279 92.7226 37.4936 93.2906 38.1189C93.8613 38.7429 94.6026 39.0562 95.5173 39.0562C96.5879 39.0562 97.4213 38.6532 98.0173 37.8498C98.6146 37.0451 98.9133 35.9843 98.9133 34.6661Z" fill="white"/>
<path d="M118.263 36.1037C118.263 37.5753 117.739 38.7726 116.687 39.6969C115.531 40.707 113.922 41.2114 111.854 41.2114C109.944 41.2114 108.414 40.8526 107.255 40.1337L107.914 37.8236C109.162 38.5594 110.531 38.9286 112.023 38.9286C113.094 38.9286 113.927 38.692 114.526 38.2214C115.122 37.7508 115.419 37.119 115.419 36.3312C115.419 35.6292 115.174 35.0377 114.682 34.558C114.192 34.0783 113.375 33.6324 112.234 33.2203C109.127 32.0906 107.575 30.4357 107.575 28.2595C107.575 26.8373 108.119 25.6712 109.208 24.7638C110.294 23.8551 111.742 23.4014 113.552 23.4014C115.167 23.4014 116.508 23.6757 117.579 24.223L116.868 26.4824C115.868 25.952 114.738 25.6868 113.472 25.6868C112.472 25.6868 111.691 25.9273 111.131 26.4057C110.658 26.8334 110.42 27.3547 110.42 27.9722C110.42 28.656 110.691 29.2215 111.235 29.6661C111.708 30.0769 112.568 30.5215 113.816 31.0012C115.343 31.6005 116.464 32.3012 117.186 33.1046C117.904 33.9054 118.263 34.9077 118.263 36.1037Z" fill="white"/>
<path d="M127.661 30.5604H124.528V36.6171C124.528 38.1576 125.08 38.9272 126.186 38.9272C126.694 38.9272 127.116 38.8843 127.449 38.7985L127.528 40.9032C126.968 41.1073 126.23 41.21 125.317 41.21C124.194 41.21 123.317 40.8759 122.684 40.209C122.053 39.5408 121.736 38.4202 121.736 36.8459V30.5578H119.869V28.4778H121.736V26.1937L124.528 25.3721V28.4778H127.661V30.5604Z" fill="white"/>
<path d="M141.799 34.6151C141.799 36.5326 141.236 38.1069 140.113 39.338C138.936 40.6055 137.373 41.2373 135.425 41.2373C133.548 41.2373 132.053 40.6302 130.939 39.416C129.824 38.2018 129.267 36.6691 129.267 34.8218C129.267 32.8887 129.84 31.3053 130.991 30.0742C132.139 28.8418 133.688 28.2256 135.636 28.2256C137.513 28.2256 139.024 28.8327 140.164 30.0482C141.255 31.2273 141.799 32.7496 141.799 34.6151ZM138.849 34.7048C138.849 33.5543 138.597 32.5676 138.087 31.7447C137.491 30.7489 136.639 30.2523 135.535 30.2523C134.392 30.2523 133.524 30.7502 132.928 31.7447C132.417 32.5689 132.165 33.5712 132.165 34.7568C132.165 35.9073 132.417 36.894 132.928 37.7156C133.543 38.7114 134.401 39.208 135.509 39.208C136.595 39.208 137.447 38.701 138.061 37.6896C138.585 36.8511 138.849 35.854 138.849 34.7048Z" fill="white"/>
<path d="M151.039 30.9182C150.757 30.8675 150.457 30.8415 150.143 30.8415C149.143 30.8415 148.369 31.2094 147.825 31.9465C147.352 32.5965 147.115 33.4181 147.115 34.41V40.9555H144.273L144.3 32.4093C144.3 30.9715 144.264 29.6624 144.193 28.482H146.669L146.773 30.8688H146.852C147.152 30.0485 147.625 29.3881 148.273 28.8928C148.907 28.4469 149.591 28.2246 150.328 28.2246C150.591 28.2246 150.828 28.2428 151.039 28.2753V30.9182Z" fill="white"/>
<path d="M163.752 34.1279C163.752 34.6245 163.718 35.0431 163.648 35.385H155.12C155.153 36.6174 155.565 37.5599 156.357 38.2099C157.076 38.791 158.005 39.0822 159.146 39.0822C160.409 39.0822 161.561 38.8859 162.597 38.492L163.042 40.416C161.832 40.9308 160.402 41.1869 158.753 41.1869C156.769 41.1869 155.212 40.6175 154.078 39.48C152.948 38.3425 152.381 36.815 152.381 34.8988C152.381 33.0177 152.908 31.4512 153.962 30.2019C155.066 28.8681 156.558 28.2012 158.436 28.2012C160.28 28.2012 161.676 28.8681 162.624 30.2019C163.374 31.2614 163.752 32.5718 163.752 34.1279ZM161.041 33.409C161.06 32.5874 160.874 31.8776 160.489 31.2783C159.997 30.5074 159.241 30.1226 158.224 30.1226C157.294 30.1226 156.538 30.4983 155.961 31.2523C155.488 31.8516 155.206 32.5705 155.12 33.4077H161.041V33.409Z" fill="white"/>
<path d="M66.2767 13.0118C66.2767 14.5419 65.806 15.6937 64.866 16.4672C63.9953 17.1809 62.758 17.5384 61.1553 17.5384C60.3607 17.5384 59.6807 17.5046 59.1113 17.437V9.0767C59.854 8.9597 60.654 8.8999 61.518 8.8999C63.0447 8.8999 64.1953 9.2236 64.9713 9.871C65.8407 10.6029 66.2767 11.6494 66.2767 13.0118ZM64.8033 13.0495C64.8033 12.0576 64.534 11.2971 63.9953 10.7667C63.4567 10.2376 62.67 9.9724 61.634 9.9724C61.194 9.9724 60.8193 10.001 60.5087 10.0608V16.4165C60.6807 16.4425 60.9953 16.4542 61.4527 16.4542C62.522 16.4542 63.3473 16.1643 63.9287 15.5845C64.51 15.0047 64.8033 14.1597 64.8033 13.0495Z" fill="white"/>
<path d="M74.0886 14.3482C74.0886 15.2907 73.8126 16.0629 73.2606 16.6687C72.682 17.2914 71.9153 17.6021 70.958 17.6021C70.0353 17.6021 69.3006 17.3044 68.7526 16.7064C68.206 16.1097 67.9326 15.357 67.9326 14.4496C67.9326 13.5006 68.2139 12.7219 68.7793 12.1174C69.3446 11.5129 70.1046 11.21 71.062 11.21C71.9846 11.21 72.726 11.5077 73.2873 12.1044C73.8206 12.6842 74.0886 13.433 74.0886 14.3482ZM72.6393 14.3924C72.6393 13.8269 72.514 13.342 72.2646 12.9377C71.9713 12.4489 71.554 12.2045 71.0113 12.2045C70.45 12.2045 70.0233 12.4489 69.73 12.9377C69.4793 13.342 69.3553 13.8347 69.3553 14.4171C69.3553 14.9826 69.4806 15.4675 69.73 15.8718C70.0326 16.3606 70.454 16.605 70.998 16.605C71.5313 16.605 71.95 16.3567 72.2513 15.8588C72.51 15.4467 72.6393 14.9579 72.6393 14.3924Z" fill="white"/>
<path d="M84.5637 11.335L82.597 17.4632H81.317L80.5024 14.8021C80.2957 14.1378 80.1277 13.4774 79.997 12.8222H79.9717C79.8504 13.4956 79.6824 14.1547 79.4664 14.8021L78.601 17.4632H77.3064L75.457 11.335H76.893L77.6037 14.2483C77.7757 14.9373 77.917 15.5938 78.0304 16.2152H78.0557C78.1597 15.703 78.3317 15.0504 78.5744 14.2613L79.4664 11.3363H80.605L81.4597 14.1989C81.6664 14.897 81.8344 15.5691 81.9637 16.2165H82.0024C82.097 15.586 82.2397 14.9139 82.429 14.1989L83.1917 11.3363H84.5637V11.335Z" fill="white"/>
<path d="M91.8072 17.463H90.4098V13.953C90.4098 12.8714 89.9885 12.3306 89.1432 12.3306C88.7285 12.3306 88.3938 12.4788 88.1338 12.7765C87.8765 13.0742 87.7458 13.4252 87.7458 13.8269V17.4617H86.3485V13.0859C86.3485 12.5477 86.3312 11.964 86.2979 11.3322H87.5258L87.5912 12.2903H87.6298C87.7925 11.9926 88.0352 11.7469 88.3538 11.5506C88.7325 11.3218 89.1565 11.2061 89.6205 11.2061C90.2072 11.2061 90.6952 11.3907 91.0832 11.7612C91.5658 12.2149 91.8072 12.8922 91.8072 13.7918V17.463Z" fill="white"/>
<path d="M95.6606 17.463H94.2646V8.52295H95.6606V17.463Z" fill="white"/>
<path d="M103.887 14.3482C103.887 15.2907 103.611 16.0629 103.059 16.6687C102.481 17.2914 101.713 17.6021 100.757 17.6021C99.8328 17.6021 99.0981 17.3044 98.5514 16.7064C98.0048 16.1097 97.7314 15.357 97.7314 14.4496C97.7314 13.5006 98.0128 12.7219 98.5781 12.1174C99.1434 11.5129 99.9034 11.21 100.859 11.21C101.783 11.21 102.523 11.5077 103.086 12.1044C103.619 12.6842 103.887 13.433 103.887 14.3482ZM102.437 14.3924C102.437 13.8269 102.311 13.342 102.062 12.9377C101.77 12.4489 101.351 12.2045 100.81 12.2045C100.247 12.2045 99.8208 12.4489 99.5288 12.9377C99.2781 13.342 99.1541 13.8347 99.1541 14.4171C99.1541 14.9826 99.2794 15.4675 99.5288 15.8718C99.8314 16.3606 100.253 16.605 100.797 16.605C101.33 16.605 101.747 16.3567 102.049 15.8588C102.309 15.4467 102.437 14.9579 102.437 14.3924Z" fill="white"/>
<path d="M110.65 17.463H109.396L109.292 16.7571H109.253C108.824 17.32 108.212 17.6021 107.417 17.6021C106.824 17.6021 106.344 17.4162 105.982 17.047C105.654 16.7116 105.49 16.2943 105.49 15.799C105.49 15.0502 105.81 14.4795 106.454 14.0843C107.097 13.6891 108.001 13.4954 109.165 13.5045V13.3901C109.165 12.5828 108.73 12.1798 107.86 12.1798C107.24 12.1798 106.693 12.3319 106.221 12.6335L105.937 11.7391C106.521 11.3868 107.242 11.21 108.093 11.21C109.736 11.21 110.56 12.055 110.56 13.745V16.0018C110.56 16.6141 110.59 17.1016 110.65 17.463ZM109.2 15.357V14.4119C107.658 14.3859 106.888 14.798 106.888 15.6469C106.888 15.9667 106.976 16.2059 107.156 16.3658C107.336 16.5257 107.565 16.605 107.838 16.605C108.145 16.605 108.432 16.5101 108.693 16.3216C108.956 16.1318 109.117 15.8913 109.177 15.5962C109.192 15.5299 109.2 15.4493 109.2 15.357Z" fill="white"/>
<path d="M118.59 17.463H117.35L117.284 16.4789H117.246C116.85 17.2277 116.175 17.6021 115.227 17.6021C114.47 17.6021 113.839 17.3123 113.339 16.7324C112.839 16.1526 112.59 15.3999 112.59 14.4756C112.59 13.4837 112.861 12.6803 113.405 12.0667C113.931 11.4947 114.577 11.2087 115.344 11.2087C116.188 11.2087 116.779 11.4856 117.115 12.0407H117.142V8.52295H118.54V15.812C118.54 16.4087 118.557 16.9586 118.59 17.463ZM117.142 14.8786V13.8568C117.142 13.68 117.128 13.537 117.103 13.4278C117.024 13.1002 116.855 12.8246 116.598 12.6023C116.338 12.38 116.024 12.2682 115.663 12.2682C115.142 12.2682 114.734 12.4697 114.434 12.874C114.137 13.2783 113.986 13.7944 113.986 14.4249C113.986 15.0307 114.129 15.5221 114.415 15.9004C114.718 16.3034 115.126 16.5049 115.637 16.5049C116.095 16.5049 116.462 16.3372 116.741 16.0005C117.01 15.6898 117.142 15.3154 117.142 14.8786Z" fill="white"/>
<path d="M130.541 14.3482C130.541 15.2907 130.265 16.0629 129.713 16.6687C129.134 17.2914 128.369 17.6021 127.41 17.6021C126.489 17.6021 125.754 17.3044 125.205 16.7064C124.658 16.1097 124.385 15.357 124.385 14.4496C124.385 13.5006 124.666 12.7219 125.231 12.1174C125.797 11.5129 126.557 11.21 127.515 11.21C128.437 11.21 129.179 11.5077 129.739 12.1044C130.273 12.6842 130.541 13.433 130.541 14.3482ZM129.093 14.3924C129.093 13.8269 128.967 13.342 128.718 12.9377C128.423 12.4489 128.007 12.2045 127.463 12.2045C126.903 12.2045 126.477 12.4489 126.182 12.9377C125.931 13.342 125.807 13.8347 125.807 14.4171C125.807 14.9826 125.933 15.4675 126.182 15.8718C126.485 16.3606 126.906 16.605 127.45 16.605C127.983 16.605 128.403 16.3567 128.705 15.8588C128.962 15.4467 129.093 14.9579 129.093 14.3924Z" fill="white"/>
<path d="M138.054 17.463H136.658V13.953C136.658 12.8714 136.237 12.3306 135.39 12.3306C134.975 12.3306 134.641 12.4788 134.382 12.7765C134.123 13.0742 133.994 13.4252 133.994 13.8269V17.4617H132.595V13.0859C132.595 12.5477 132.579 11.964 132.546 11.3322H133.773L133.838 12.2903H133.877C134.041 11.9926 134.283 11.7469 134.601 11.5506C134.981 11.3218 135.403 11.2061 135.869 11.2061C136.454 11.2061 136.942 11.3907 137.33 11.7612C137.814 12.2149 138.054 12.8922 138.054 13.7918V17.463Z" fill="white"/>
<path d="M147.458 12.3553H145.919V15.3323C145.919 16.0889 146.193 16.4672 146.734 16.4672C146.985 16.4672 147.193 16.4464 147.357 16.4035L147.393 17.437C147.117 17.5384 146.754 17.5891 146.307 17.5891C145.755 17.5891 145.326 17.4253 145.015 17.0977C144.703 16.7701 144.549 16.2189 144.549 15.4454V12.3553H143.63V11.3348H144.549V10.2116L145.918 9.80859V11.3335H147.457V12.3553H147.458Z" fill="white"/>
<path d="M154.855 17.463H153.457V13.979C153.457 12.8805 153.035 12.3306 152.191 12.3306C151.543 12.3306 151.1 12.6491 150.858 13.2861C150.816 13.42 150.792 13.5838 150.792 13.7762V17.4618H149.396V8.52295H150.792V12.2162H150.819C151.259 11.5441 151.89 11.2087 152.707 11.2087C153.286 11.2087 153.765 11.3933 154.145 11.7638C154.618 12.2253 154.855 12.9117 154.855 13.8191V17.463Z" fill="white"/>
<path d="M162.486 14.1089C162.486 14.3533 162.468 14.5587 162.434 14.7264H158.244C158.262 15.3322 158.462 15.7937 158.85 16.1135C159.205 16.3995 159.662 16.5425 160.222 16.5425C160.842 16.5425 161.408 16.4463 161.917 16.2526L162.136 17.199C161.54 17.4512 160.838 17.5773 160.026 17.5773C159.053 17.5773 158.286 17.2978 157.732 16.7388C157.174 16.1798 156.898 15.4297 156.898 14.4885C156.898 13.5642 157.156 12.7946 157.674 12.181C158.216 11.5258 158.948 11.1982 159.872 11.1982C160.776 11.1982 161.462 11.5258 161.926 12.181C162.301 12.701 162.486 13.3445 162.486 14.1089ZM161.153 13.7566C161.164 13.3523 161.072 13.0039 160.882 12.7101C160.64 12.3318 160.27 12.142 159.77 12.142C159.314 12.142 158.942 12.3266 158.658 12.6971C158.426 12.9922 158.289 13.3445 158.244 13.7566H161.153Z" fill="white"/>
</svg>
