<svg width="128" height="42" viewBox="0 0 128 42" fill="none" xmlns="http://www.w3.org/2000/svg">
<g clip-path="url(#clip0_367_1665)">
<path d="M0.00218009 18.4366C3.63195 18.5238 3.55566 17.1416 3.55566 14.7262V4.77212C3.55566 2.35663 3.63195 0.972296 0.00218009 1.06168V0C1.85521 0.0305206 3.59272 0.0893837 5.33238 0.117725C7.37291 0.0872035 9.41563 0.0283406 11.4561 0C15.5023 0.0588612 21.5127 0.619131 21.5127 4.71325C21.5127 7.59963 17.6191 8.7485 14.5562 9.07117V9.12999C18.3734 9.42434 23.0997 10.5732 23.0997 14.1965C23.0997 19.0863 15.5764 19.5572 10.8893 19.4983C9.03631 19.4678 7.14618 19.4111 5.29315 19.3806C3.55347 19.4111 1.85304 19.4678 0 19.4983V18.4366H0.00218009ZM9.33929 14.2248C9.33929 16.1694 9.33929 18.1423 12.5157 18.1423C15.5023 18.1423 16.5618 16.3155 16.5618 14.2248C16.5618 11.2512 14.7851 9.92573 10.9656 9.92573C10.4358 9.92573 9.86909 9.95623 9.33929 9.95623V14.2248ZM9.33929 8.56975H10.0957C13.6492 8.56975 15.2364 7.77403 15.2364 4.97704C15.2364 2.59207 13.913 1.3538 10.8501 1.3538C10.2462 1.32329 9.33711 1.38433 9.33711 1.94242V8.56975H9.33929Z" fill="#522E5E"/>
<path d="M28.4841 13.0713C28.4122 15.4977 29.3692 18.2532 33.1189 18.2532C35.1354 18.2532 36.0903 17.4815 37.4354 16.4068L38.5319 17.0957C37.0103 18.9138 34.5337 19.7967 31.7738 19.7967C27.139 19.7967 23.5659 17.5099 23.3523 13.7602C23.1409 9.92989 26.8905 7.30945 31.7018 7.30945C35.4886 7.30945 38.8851 9.32167 38.8851 12.4085C38.8851 13.1803 38.3183 13.0691 37.4703 13.0691H28.4841V13.0713ZM33.2257 11.9682C33.9691 11.9682 34.2526 11.7742 34.2526 11.1964C34.2526 9.92771 33.2606 8.41255 31.4228 8.41255C29.2646 8.41255 28.5931 10.5075 28.5212 11.9682H33.2257Z" fill="#522E5E"/>
<path d="M44.6273 8.88086V15.8265C44.6273 16.9012 44.6273 18.1417 45.9004 18.1417C46.7855 18.1417 47.4919 17.5901 47.9889 17.067L49.1923 17.7013C48.0608 19.1075 46.2907 19.7964 44.2043 19.7964C40.7381 19.7964 39.9947 18.2245 39.9947 15.8265V8.88086H38.085V8.05465C40.6683 7.47693 42.4014 6.04246 43.11 4.03027H44.6316V7.77996H48.2048V8.88304H44.6273V8.88086Z" fill="#522E5E"/>
<path d="M54.0503 8.88086V15.8265C54.0503 16.9012 54.0503 18.1417 55.3235 18.1417C56.2085 18.1417 56.9149 17.5901 57.4119 17.067L58.6154 17.7013C57.4839 19.1075 55.7137 19.7964 53.6252 19.7964C50.159 19.7964 49.4156 18.2245 49.4156 15.8265V8.88086H47.5059V8.05465C50.0892 7.47693 51.8223 6.04246 52.5309 4.03027H54.0525V7.77996H57.6256V8.88304H54.0503V8.88086Z" fill="#522E5E"/>
<path d="M61.2126 13.0714C61.1429 15.4978 62.0978 18.2534 65.8474 18.2534C67.864 18.2534 68.8188 17.4817 70.1639 16.4069L71.2604 17.0958C69.7387 18.914 67.2623 19.7968 64.5023 19.7968C59.8676 19.7968 56.2945 17.51 56.0808 13.7603C55.8693 9.93002 59.619 7.30957 64.4304 7.30957C68.2171 7.30957 71.6136 9.32179 71.6136 12.4087C71.6136 13.1804 71.0468 13.0693 70.1987 13.0693H61.2126V13.0714ZM65.9542 11.9684C66.6976 11.9684 66.981 11.7743 66.981 11.1966C66.981 9.92784 65.9913 8.41267 64.1514 8.41267C61.9931 8.41267 61.3216 10.5077 61.2497 11.9684H65.9542Z" fill="#522E5E"/>
<path d="M71.3076 8.38433L77.7823 7.30957L78.0308 9.98448H78.1027C78.9509 8.68953 80.6141 7.30957 82.561 7.30957C84.0107 7.30957 85.2489 8.24699 85.2489 9.43289C85.2489 10.342 84.3639 10.839 83.2324 10.839C81.3227 10.839 81.6061 9.65309 80.4376 9.65309C78.5257 9.65309 78.2794 12.3259 78.2794 13.2916V16.0472C78.2794 18.0594 78.2794 18.6393 80.7559 18.6109V19.4939C79.1274 19.4655 77.464 19.411 75.8377 19.3827C74.3509 19.411 72.8663 19.4655 71.4144 19.4939V18.6109C71.9812 18.6109 72.9012 18.5281 73.2892 18.1139C73.6424 17.7563 73.6424 16.5159 73.6424 16.0472V11.5824C73.6424 9.84497 73.1105 9.40457 71.3076 9.29556V8.38433Z" fill="#522E5E"/>
<path d="M36.6927 36.6092C36.6927 39.1598 36.6274 40.6204 39.771 40.5289V41.6494C37.8394 41.6189 35.9058 41.5557 33.9742 41.5252C32.1735 41.5557 30.4055 41.6189 28.6025 41.6494V40.5289C31.7462 40.6226 31.6808 39.1598 31.6808 36.6092V26.097C31.6808 23.5463 31.7462 22.0857 28.6025 22.1773V21.0568C30.3706 21.0873 32.1713 21.1504 33.9415 21.181C35.873 21.1504 37.8394 21.0873 39.771 21.0568V22.1773C36.6274 22.0835 36.6927 23.5463 36.6927 26.097V30.42H46.3852V26.097C46.3852 23.5463 46.4179 22.0857 43.2743 22.1773V21.0568C45.0096 21.0873 46.7122 21.1504 48.4476 21.181C50.4444 21.1504 52.4762 21.0873 54.4732 21.0568V22.1773C51.3296 22.0835 51.3949 23.5463 51.3949 26.097V36.6092C51.3949 39.1598 51.3296 40.6204 54.4732 40.5289V41.6494C52.5743 41.6189 50.6428 41.5557 48.7418 41.5252C46.9084 41.5557 45.1077 41.6189 43.2743 41.6494V40.5289C46.4179 40.6226 46.3852 39.1598 46.3852 36.6092V31.9744H36.6927V36.6092Z" fill="#522E5E"/>
<path d="M69.686 27.4132C69.686 31.08 65.8295 33.6983 61.2994 33.6983C56.6297 33.6983 52.5596 31.2174 52.5596 27.3849C52.5596 23.7463 56.8062 21.2109 61.1925 21.2109C65.7227 21.2109 69.686 23.718 69.686 27.4132ZM57.6914 27.3565C57.6914 29.397 57.9399 32.5929 61.4781 32.5929C64.4495 32.5929 64.5563 29.1201 64.5563 27.52C64.5563 25.6735 64.4495 22.3097 61.2296 22.3097C58.0794 22.314 57.6914 25.5383 57.6914 27.3565Z" fill="#522E5E"/>
<path d="M75.3359 29.9485C75.3359 31.3264 75.0874 32.5123 77.3175 32.5123V33.3952C75.8678 33.3669 74.4507 33.3123 73.001 33.284C71.4793 33.3123 69.9926 33.3669 68.473 33.3952V32.5123C69.0399 32.5123 69.9599 32.4295 70.3479 32.0153C70.7011 31.6578 70.7011 30.4173 70.7011 29.9485V26.2555C70.7011 24.8778 70.773 23.1403 68.3662 23.2231V22.314C70.5594 22.1201 72.7895 21.8737 74.9107 21.2109L75.0874 23.7463H75.1571C76.149 22.2028 78.2353 21.2109 80.4284 21.2109C82.5518 21.2109 84.5683 21.9543 84.9934 23.7463C86.1619 22.1745 88.0018 21.2109 90.3719 21.2109C92.1399 21.2109 93.9097 21.708 94.7602 23.0313C95.3614 23.9687 95.2203 26.0899 95.2203 27.193V29.9485C95.2203 30.4173 95.2203 31.6578 95.5732 32.0153C95.961 32.4295 96.8837 32.5123 97.4484 32.5123V33.3952C95.9261 33.3669 94.4047 33.3123 92.8832 33.284C91.4681 33.3123 90.0164 33.3669 88.6013 33.3952V32.5123C90.8669 32.4295 90.5828 31.4092 90.5828 29.9485V26.4474C90.5828 25.207 90.7248 22.9746 88.4601 22.9746C87.2219 22.9746 86.3014 23.718 85.7695 24.5464C85.2747 25.3465 85.2747 26.5869 85.2747 27.496V29.9485C85.2747 31.3264 85.061 32.5406 87.2567 32.5123V33.3952C85.8066 33.3669 84.3895 33.3123 82.9398 33.284C81.5249 33.3123 80.0731 33.3669 78.6582 33.3952V32.5123C80.8884 32.5123 80.6399 31.3264 80.6399 29.9485V26.4474C80.6399 25.207 80.7816 23.0008 78.5165 23.0008C77.3131 23.0008 76.4651 23.718 75.8983 24.5442C75.3315 25.3705 75.3315 26.6938 75.3315 27.6312V29.9485H75.3359Z" fill="#522E5E"/>
<path d="M101.122 26.9708C101.05 29.3973 102.007 32.1528 105.756 32.1528C107.773 32.1528 108.728 31.3811 110.073 30.3063L111.169 30.9952C109.648 32.8133 107.172 33.6963 104.411 33.6963C99.7761 33.6963 96.2035 31.4094 95.99 27.6597C95.7782 23.8272 99.5278 21.209 104.34 21.209C108.126 21.209 111.522 23.2212 111.522 26.3081C111.522 27.0798 110.956 26.9686 110.108 26.9686H101.122V26.9708ZM105.861 25.8699C106.604 25.8699 106.887 25.6759 106.887 25.0982C106.887 23.8294 105.898 22.3142 104.058 22.3142C101.9 22.3142 101.229 24.4093 101.156 25.8699H105.861Z" fill="#522E5E"/>
<path d="M113.273 33.3388H111.859L111.682 29.5891H113.097C114.051 31.1325 115.504 32.5932 117.908 32.5932C119.253 32.5932 120.667 32.07 120.667 30.884C120.667 29.6436 118.579 29.3122 117.413 29.0376C114.583 28.3748 112.035 27.5485 112.035 24.8758C112.035 22.3405 114.723 21.209 117.624 21.209C119.253 21.209 120.384 21.5121 121.764 22.1747L122.366 21.209H123.781V24.8191H122.366C121.588 23.4958 120.243 22.3099 118.261 22.3099C117.199 22.3099 115.784 22.7241 115.784 23.7444C115.784 24.9564 117.482 25.1766 118.686 25.4536C121.553 26.1708 124.594 26.9142 124.594 29.7264C124.594 32.5387 121.657 33.6963 118.472 33.6963C116.951 33.6963 115.004 33.3388 113.837 32.4841L113.273 33.3388Z" fill="#522E5E"/>
<path d="M63.756 41.157C63.4878 41.5341 62.7575 41.7565 62.2212 41.7565C61.6087 41.7565 61.2751 41.5428 61.1093 41.1089C60.6494 41.4774 59.9714 41.7565 59.3065 41.7565C58.4999 41.7565 57.835 41.34 57.835 40.7122C57.835 39.7552 59.2803 39.4281 60.4053 39.0989C60.802 38.9834 61.1225 38.9834 61.1225 38.615C61.1225 38.1899 61.0701 37.7648 60.3812 37.7648C59.8951 37.7648 59.7556 37.9196 59.5747 38.2487C59.422 38.5583 59.2542 38.8569 58.7441 38.8569C58.3472 38.8569 58.053 38.6434 58.053 38.3359C58.053 37.5141 59.7273 37.3789 60.5208 37.3789C61.6195 37.3789 62.7968 37.5926 62.7968 38.5779V40.5399C62.7968 40.7035 62.7968 41.0327 63.0649 41.0327C63.2699 41.0327 63.3592 40.9847 63.4988 40.8975L63.756 41.157ZM61.1203 39.2843C60.4815 39.4958 59.6357 39.7573 59.6357 40.3765C59.6357 40.6861 59.8014 41.0327 60.2613 41.0327C60.6451 41.0327 61.1182 40.7514 61.1182 40.4332V39.2843H61.1203Z" fill="#522E5E"/>
<path d="M66.0664 40.4419C66.0664 40.6054 66.0664 41.0414 66.1819 41.1657C66.3215 41.3095 66.655 41.34 66.86 41.34V41.6496C66.3106 41.6409 65.7721 41.6213 65.2227 41.6103C64.6865 41.6191 64.1349 41.6387 63.5986 41.6496V41.34C63.8035 41.34 64.1349 41.3117 64.2766 41.1657C64.3921 41.0392 64.3921 40.6054 64.3921 40.4419V39.0597C64.3921 38.5387 64.4052 38.0744 63.5615 38.0744V37.756C64.3551 37.6972 65.1464 37.6122 65.9138 37.3789L66.0533 38.2487C66.5264 37.7473 67.115 37.3789 67.9456 37.3789C68.4949 37.3789 69.1098 37.5337 69.4673 37.8803C69.7877 38.1986 69.7747 38.7698 69.7747 39.1644V40.4397C69.7747 40.6032 69.7747 41.0392 69.8902 41.1635C70.0297 41.3074 70.3633 41.3379 70.5682 41.3379V41.6475C70.069 41.6387 69.5719 41.6191 69.0727 41.6082C68.484 41.6169 67.8824 41.6366 67.2959 41.6475V41.3182C67.5009 41.3182 67.8323 41.3095 67.9739 41.1635C68.1026 41.0371 68.1026 40.6032 68.1026 40.4397V39.232C68.1026 38.7785 68.1418 38.0046 67.285 38.0046C66.7858 38.0046 66.4414 38.2837 66.2364 38.6041C66.0577 38.8832 66.0708 39.2995 66.0708 39.6091V40.4419H66.0664Z" fill="#522E5E"/>
<path d="M77.3407 41.3907L75.0015 41.7678L74.886 40.9176C74.3998 41.4387 73.8243 41.7569 72.9413 41.7569C71.3434 41.7569 70.3711 40.7324 70.3711 39.6031C70.3711 38.4433 71.4459 37.3817 73.0438 37.3817C73.7218 37.3817 74.3344 37.6912 74.7574 38.0487V36.5511C74.7574 36.0191 74.8075 35.7684 73.9529 35.7117V35.3934L76.4338 35.1035V40.4358C76.4469 40.9373 76.6889 41.103 77.3428 41.0725V41.3907H77.3407ZM72.2263 39.5246C72.2263 40.1917 72.392 41.1291 73.5299 41.1291C74.7574 41.1291 74.7574 40.183 74.7574 39.4875C74.7574 38.8118 74.7202 38.0095 73.5692 38.0095C72.4552 38.0095 72.2263 38.8488 72.2263 39.5246Z" fill="#522E5E"/>
<path d="M87.424 35.2276H87.9607L88.0758 37.2376H87.5137C87.2061 36.3394 86.4387 35.6527 85.122 35.6527C83.0749 35.6527 82.5648 37.2943 82.5648 38.5413C82.5648 39.7098 83.0771 41.275 85.0065 41.275C86.1314 41.275 86.6807 40.9459 86.6807 40.0957C86.6807 39.4591 86.502 39.3326 85.6321 39.2651V38.9185H89.443V39.2651C88.5864 39.2934 88.6361 39.5659 88.6361 40.0957V41.1007C87.7664 41.1879 87.5242 41.2162 86.7178 41.4299C85.9897 41.6326 85.4642 41.7591 84.6708 41.7591C82.1004 41.7591 80.3477 40.5316 80.3477 38.5718C80.3477 36.6599 82.1004 35.1709 84.6969 35.1709C85.6037 35.1709 86.4998 35.3257 87.2148 35.7704L87.424 35.2276Z" fill="#522E5E"/>
<path d="M95.2335 41.157C94.9652 41.5341 94.2367 41.7565 93.6982 41.7565C93.0856 41.7565 92.7527 41.5428 92.5863 41.1089C92.1271 41.4774 91.4491 41.7565 90.7834 41.7565C89.9774 41.7565 89.3125 41.34 89.3125 40.7122C89.3125 39.7552 90.7572 39.4281 91.8822 39.0989C92.2796 38.9834 92.5976 38.9834 92.5976 38.615C92.5976 38.1899 92.5471 37.7648 91.8561 37.7648C91.3698 37.7648 91.2304 37.9196 91.05 38.2487C90.8975 38.5583 90.7294 38.8569 90.2196 38.8569C89.8223 38.8569 89.5277 38.6434 89.5277 38.3359C89.5277 37.5141 91.2025 37.3789 91.9955 37.3789C93.0943 37.3789 94.2715 37.5926 94.2715 38.5779V40.5399C94.2715 40.7035 94.2715 41.0327 94.5399 41.0327C94.7447 41.0327 94.8344 40.9847 94.9739 40.8975L95.2335 41.157ZM92.5993 39.2843C91.9606 39.4958 91.1171 39.7573 91.1171 40.3765C91.1171 40.6861 91.2827 41.0327 91.7428 41.0327C92.1271 41.0327 92.5993 40.7514 92.5993 40.4332V39.2843Z" fill="#522E5E"/>
<path d="M95.2207 37.7581L97.5595 37.3809L97.6492 38.3183H97.6754C97.983 37.8648 98.5842 37.3809 99.2866 37.3809C99.812 37.3809 100.258 37.7101 100.258 38.1243C100.258 38.4425 99.9384 38.617 99.5306 38.617C98.8396 38.617 98.9415 38.2006 98.5206 38.2006C97.8296 38.2006 97.7407 39.138 97.7407 39.4759V40.4417C97.7407 41.148 97.7407 41.3508 98.6365 41.3399V41.6494C98.0483 41.6407 97.4462 41.6211 96.8598 41.6102C96.3239 41.6189 95.7854 41.6385 95.2617 41.6494V41.3399C95.4664 41.3399 95.7984 41.3115 95.9396 41.1654C96.0686 41.039 96.0686 40.6051 96.0686 40.4417V38.8764C96.0686 38.2682 95.8769 38.1134 95.2251 38.0741V37.7581H95.2207Z" fill="#522E5E"/>
<path d="M107.556 41.3906L105.045 41.7678L104.921 40.9176C104.4 41.4387 103.783 41.7569 102.835 41.7569C101.119 41.7569 100.077 40.7323 100.077 39.603C100.077 38.4433 101.23 37.3816 102.946 37.3816C103.674 37.3816 104.332 37.6911 104.786 38.0486V36.551C104.786 36.019 104.84 35.7683 103.92 35.7117V35.3934L106.582 35.1035V40.4358C106.595 40.9373 106.856 41.1029 107.556 41.0724V41.3906ZM102.067 39.5246C102.067 40.1916 102.246 41.1291 103.467 41.1291C104.783 41.1291 104.783 40.1829 104.783 39.4875C104.783 38.8117 104.743 38.0094 103.509 38.0094C102.316 38.0094 102.067 38.8487 102.067 39.5246Z" fill="#522E5E"/>
<path d="M109.059 39.3998C109.033 40.25 109.38 41.2158 110.735 41.2158C111.464 41.2158 111.811 40.9455 112.296 40.5683L112.693 40.8103C112.144 41.449 111.248 41.7565 110.252 41.7565C108.575 41.7565 107.285 40.9542 107.208 39.6396C107.132 38.2967 108.488 37.3789 110.226 37.3789C111.595 37.3789 112.822 38.0852 112.822 39.1665C112.822 39.4368 112.617 39.3976 112.309 39.3976H109.059V39.3998ZM110.773 39.014C111.04 39.014 111.143 38.9463 111.143 38.7436C111.143 38.2989 110.786 37.7669 110.121 37.7669C109.34 37.7669 109.098 38.5016 109.072 39.014H110.773Z" fill="#522E5E"/>
<path d="M115.293 40.4419C115.293 40.6054 115.293 41.0414 115.409 41.1657C115.551 41.3095 115.882 41.34 116.087 41.34V41.6496C115.538 41.6409 115 41.6213 114.45 41.6103C113.914 41.6191 113.362 41.6387 112.826 41.6496V41.34C113.031 41.34 113.362 41.3117 113.504 41.1657C113.619 41.0392 113.619 40.6054 113.619 40.4419V39.0597C113.619 38.5387 113.633 38.0744 112.789 38.0744V37.756C113.583 37.6972 114.374 37.6122 115.141 37.3789L115.283 38.2487C115.756 37.7473 116.344 37.3789 117.176 37.3789C117.725 37.3789 118.34 37.5337 118.697 37.8803C119.018 38.1986 119.005 38.7698 119.005 39.1644V40.4397C119.005 40.6032 119.005 41.0392 119.12 41.1635C119.262 41.3074 119.593 41.3379 119.798 41.3379V41.6475C119.298 41.6387 118.799 41.6191 118.302 41.6082C117.714 41.6169 117.115 41.6366 116.526 41.6475V41.3182C116.73 41.3182 117.061 41.3095 117.203 41.1635C117.332 41.0371 117.332 40.6032 117.332 40.4397V39.232C117.332 38.7785 117.372 38.0046 116.515 38.0046C116.016 38.0046 115.671 38.2837 115.466 38.6041C115.287 38.8832 115.3 39.2995 115.3 39.6091V40.4419H115.293Z" fill="#522E5E"/>
<path d="M120.606 41.6322H120.095L120.031 40.3176H120.544C120.89 40.8582 121.413 41.3705 122.283 41.3705C122.769 41.3705 123.282 41.1875 123.282 40.771C123.282 40.3372 122.528 40.2195 122.104 40.1236C121.082 39.8925 120.16 39.6026 120.16 38.6652C120.16 37.7756 121.132 37.3789 122.181 37.3789C122.769 37.3789 123.18 37.4857 123.676 37.7168L123.894 37.3789H124.406V38.6455H123.894C123.613 38.1812 123.127 37.7669 122.412 37.7669C122.028 37.7669 121.516 37.9109 121.516 38.2684C121.516 38.6935 122.13 38.7698 122.564 38.8679C123.6 39.1186 124.701 39.3802 124.701 40.3656C124.701 41.3509 123.639 41.7565 122.489 41.7565C121.939 41.7565 121.235 41.63 120.814 41.3313L120.606 41.6322Z" fill="#522E5E"/>
<path d="M125.823 41.5383H125.68V40.8668H125.93C126.105 40.8668 126.208 40.9148 126.208 41.0696C126.208 41.1939 126.135 41.2375 126.045 41.2441L126.218 41.5383H126.048L125.893 41.2571H125.826V41.5383H125.823ZM125.95 41.1416C126.015 41.1416 126.052 41.1285 126.052 41.0544C126.052 40.9846 125.978 40.9802 125.923 40.9802H125.823V41.1416H125.95ZM125.928 41.826C125.595 41.826 125.298 41.5972 125.298 41.2026C125.298 40.808 125.595 40.5791 125.928 40.5791C126.26 40.5791 126.556 40.808 126.556 41.2026C126.553 41.5972 126.257 41.826 125.928 41.826ZM125.928 40.7251C125.68 40.7251 125.479 40.917 125.479 41.2048C125.479 41.4926 125.68 41.6844 125.928 41.6822V41.6844C126.17 41.6844 126.375 41.4904 126.375 41.2048C126.375 40.9148 126.168 40.7251 125.928 40.7251Z" fill="#522E5E"/>
</g>
<defs>
<clipPath id="clip0_367_1665">
<rect width="127.222" height="41.8263" fill="white"/>
</clipPath>
</defs>
</svg>
