<svg width="24" height="24" viewBox="0 0 24 24" fill="none" xmlns="http://www.w3.org/2000/svg">
<rect width="24" height="24" rx="6" fill="#DEA516"/>
<g clip-path="url(#clip0_367_1536)">
<path d="M17.7001 12.5592C18.6235 11.6689 19.1619 10.4526 19.2001 9.17045C19.2001 5.77805 17.5399 5.41205 16.8265 5.41205C15.0457 5.41205 13.2961 7.15205 12.0019 8.72465C10.7173 7.16525 8.96232 5.41205 7.17672 5.41205C4.68732 5.25605 3.77653 10.2546 6.30372 12.5598C6.40932 12.6642 6.51912 12.762 6.63012 12.8538C6.10177 13.3603 5.72525 14.0042 5.54293 14.713C5.36061 15.4219 5.37973 16.1675 5.59812 16.866C5.69901 17.2098 5.87521 17.5268 6.11392 17.7939C6.35262 18.0611 6.64784 18.2717 6.97812 18.4104C7.29847 18.5475 7.64531 18.6116 7.99348 18.598C8.34165 18.5844 8.68243 18.4935 8.99112 18.3318C9.87894 17.8714 10.6913 17.2782 11.4001 16.5726V18C11.4001 18.1592 11.4633 18.3118 11.5759 18.4243C11.6884 18.5368 11.841 18.6 12.0001 18.6C12.1592 18.6 12.3119 18.5368 12.4244 18.4243C12.5369 18.3118 12.6001 18.1592 12.6001 18V16.5726C13.3093 17.2783 14.1223 17.8714 15.0109 18.3312C15.3195 18.4931 15.6603 18.5842 16.0085 18.5979C16.3567 18.6116 16.7035 18.5475 17.0239 18.4104C17.3541 18.2717 17.6493 18.0612 17.888 17.7941C18.1267 17.5271 18.3029 17.2103 18.4039 16.8666C18.6297 16.1672 18.6553 15.4186 18.4779 14.7053C18.3006 13.9921 17.9272 13.3426 17.4001 12.8304C17.5027 12.7452 17.6029 12.6552 17.7001 12.5592ZM11.4001 14.1816C11.4001 15.0684 10.1521 16.3668 8.43192 17.2692C8.2806 17.3494 8.11309 17.3943 7.94195 17.4006C7.77081 17.4068 7.60048 17.3742 7.44372 17.3052C7.27724 17.235 7.1285 17.1286 7.00832 16.9936C6.88813 16.8587 6.79952 16.6987 6.74892 16.5252C6.57653 15.9859 6.57422 15.4065 6.7423 14.8658C6.91039 14.325 7.24073 13.8491 7.68852 13.5024C8.14269 13.6951 8.6304 13.7962 9.12372 13.8C9.90312 13.8108 10.6769 13.6666 11.4001 13.3758V14.1816ZM11.4001 11.991C10.7212 12.4347 9.91767 12.6482 9.10812 12.6C8.73758 12.5917 8.37259 12.5082 8.03532 12.3545C7.69805 12.2008 7.39553 11.9802 7.14612 11.706C6.45461 11.0389 6.0464 10.1311 6.00612 9.17105C6.00612 7.54505 6.43392 6.61265 7.17912 6.61265C8.24772 6.61205 9.66372 7.71485 11.4001 9.89465V11.991ZM12.6001 9.90005C14.3281 7.72205 15.7513 6.61205 16.8265 6.61205C17.5723 6.61205 18.0001 7.54445 18.0001 9.17045C17.9597 10.1305 17.5515 11.0382 16.8601 11.7054C16.3566 12.2465 15.6605 12.5679 14.9221 12.6C14.1027 12.648 13.2894 12.4337 12.6001 11.988V9.90005ZM17.2513 16.5288C17.2008 16.7023 17.1122 16.8624 16.992 16.9973C16.8718 17.1323 16.723 17.2387 16.5565 17.3088C16.3997 17.3777 16.2294 17.4101 16.0582 17.4038C15.8871 17.3975 15.7196 17.3525 15.5683 17.2723C13.8481 16.3668 12.6001 15.0684 12.6001 14.1816V13.3746C13.3244 13.6662 14.0994 13.8108 14.8801 13.8C15.3807 13.7987 15.8758 13.6945 16.3345 13.494C16.7848 13.8405 17.1153 14.3192 17.2797 14.8631C17.4441 15.4069 17.4342 15.9886 17.2513 16.5264V16.5288ZM10.8001 6.00005C10.8001 5.68179 10.9265 5.37656 11.1516 5.15152C11.3766 4.92648 11.6819 4.80005 12.0001 4.80005C12.3184 4.80005 12.6236 4.92648 12.8486 5.15152C13.0737 5.37656 13.2001 5.68179 13.2001 6.00005C13.2001 6.31831 13.0737 6.62353 12.8486 6.84858C12.6236 7.07362 12.3184 7.20005 12.0001 7.20005C11.6819 7.20005 11.3766 7.07362 11.1516 6.84858C10.9265 6.62353 10.8001 6.31831 10.8001 6.00005Z" fill="#FFF8E7"/>
</g>
<defs>
<clipPath id="clip0_367_1536">
<rect width="14.4" height="14.4" fill="white" transform="translate(4.7998 4.80005)"/>
</clipPath>
</defs>
</svg>
