<svg width="24" height="24" viewBox="0 0 24 24" fill="none" xmlns="http://www.w3.org/2000/svg">
<rect width="24" height="24" rx="6" fill="#427CC6"/>
<g clip-path="url(#clip0_367_1525)">
<path d="M19.1995 11.5482C19.1127 10.1443 18.617 8.79635 17.7734 7.6707C16.9298 6.54505 15.7753 5.69086 14.4521 5.21344C13.129 4.73602 11.695 4.65625 10.327 4.98394C8.95908 5.31164 7.71691 6.03249 6.75368 7.05762C5.79044 8.08275 5.14825 9.36734 4.90627 10.753C4.66429 12.1387 4.8331 13.565 5.3919 14.8559C5.95069 16.1468 6.87503 17.246 8.05097 18.0179C9.22691 18.7898 10.603 19.2008 12.0097 19.2H16.1995C16.9949 19.1993 17.7575 18.8829 18.32 18.3205C18.8824 17.7581 19.1987 16.9955 19.1995 16.2V11.5482ZM17.9995 16.2C17.9995 16.6774 17.8099 17.1353 17.4723 17.4728C17.1347 17.8104 16.6769 18 16.1995 18H12.0097C11.1631 17.9997 10.326 17.8208 9.55312 17.4752C8.78024 17.1296 8.08887 16.625 7.52411 15.9942C6.95661 15.3638 6.53046 14.6193 6.27424 13.8107C6.01802 13.0021 5.93764 12.1481 6.03851 11.3058C6.19777 9.97741 6.79462 8.73976 7.73497 7.788C8.67532 6.83624 9.90569 6.22451 11.2321 6.04924C11.4908 6.01682 11.7513 6.00038 12.0121 6.00004C13.4104 5.99623 14.7654 6.48479 15.8395 7.38005C16.4668 7.90141 16.9817 8.54474 17.353 9.27102C17.7243 9.99731 17.9443 10.7914 17.9995 11.6052V16.2Z" fill="white"/>
<path d="M9.6 10.2H12C12.1591 10.2 12.3117 10.1368 12.4243 10.0243C12.5368 9.91174 12.6 9.75913 12.6 9.6C12.6 9.44087 12.5368 9.28826 12.4243 9.17574C12.3117 9.06321 12.1591 9 12 9H9.6C9.44087 9 9.28826 9.06321 9.17574 9.17574C9.06321 9.28826 9 9.44087 9 9.6C9 9.75913 9.06321 9.91174 9.17574 10.0243C9.28826 10.1368 9.44087 10.2 9.6 10.2Z" fill="white"/>
<path d="M14.4 11.4001H9.6C9.44087 11.4001 9.28826 11.4634 9.17574 11.5759C9.06321 11.6884 9 11.841 9 12.0001C9 12.1593 9.06321 12.3119 9.17574 12.4244C9.28826 12.5369 9.44087 12.6002 9.6 12.6002H14.4C14.5591 12.6002 14.7117 12.5369 14.8243 12.4244C14.9368 12.3119 15 12.1593 15 12.0001C15 11.841 14.9368 11.6884 14.8243 11.5759C14.7117 11.4634 14.5591 11.4001 14.4 11.4001Z" fill="white"/>
<path d="M14.4 13.8H9.6C9.44087 13.8 9.28826 13.8633 9.17574 13.9758C9.06321 14.0883 9 14.2409 9 14.4001C9 14.5592 9.06321 14.7118 9.17574 14.8243C9.28826 14.9368 9.44087 15.0001 9.6 15.0001H14.4C14.5591 15.0001 14.7117 14.9368 14.8243 14.8243C14.9368 14.7118 15 14.5592 15 14.4001C15 14.2409 14.9368 14.0883 14.8243 13.9758C14.7117 13.8633 14.5591 13.8 14.4 13.8Z" fill="white"/>
</g>
<defs>
<clipPath id="clip0_367_1525">
<rect width="14.4" height="14.4" fill="white" transform="translate(4.7998 4.80005)"/>
</clipPath>
</defs>
</svg>
