<svg width="180" height="52" viewBox="0 0 180 52" fill="none" xmlns="http://www.w3.org/2000/svg">
<path d="M173.219 52H6.78153C3.12156 52 0.124023 49.0734 0.124023 45.5V6.5C0.124023 2.92663 3.12156 2.74817e-06 6.78153 2.74817e-06H173.219C176.879 2.74817e-06 179.877 2.92663 179.877 6.5V45.5C179.877 49.0734 176.879 52 173.219 52Z" fill="black"/>
<path d="M173.219 1.04162C176.302 1.04162 178.81 3.4905 178.81 6.5V45.5C178.81 48.5095 176.302 50.9584 173.219 50.9584H6.78153C3.6991 50.9584 1.19089 48.5095 1.19089 45.5V6.5C1.19089 3.4905 3.6991 1.04162 6.78153 1.04162H173.219ZM173.219 2.74817e-06H6.78153C3.12156 2.74817e-06 0.124023 2.92663 0.124023 6.5V45.5C0.124023 49.0734 3.12156 52 6.78153 52H173.219C176.879 52 179.877 49.0734 179.877 45.5V6.5C179.877 2.92663 176.879 2.74817e-06 173.219 2.74817e-06Z" fill="#A6A6A6"/>
<path d="M63.2601 13.3167C63.2601 14.4022 62.9272 15.2716 62.2715 15.9199C61.5175 16.6886 60.5355 17.0753 59.3322 17.0753C58.1821 17.0753 57.2001 16.6821 56.3946 15.9069C55.5873 15.1204 55.1846 14.1552 55.1846 12.9998C55.1846 11.8444 55.5873 10.8792 56.3946 10.0992C57.2001 9.31757 58.1821 8.92432 59.3322 8.92432C59.9047 8.92432 60.4507 9.03969 60.9716 9.25419C61.4909 9.47032 61.9136 9.76282 62.2199 10.1236L61.5242 10.8093C60.9899 10.1934 60.2626 9.88957 59.3322 9.88957C58.4934 9.88957 57.766 10.1756 57.1485 10.7524C56.5377 11.3309 56.2315 12.0801 56.2315 12.9998C56.2315 13.9196 56.5377 14.6752 57.1485 15.2537C57.766 15.8241 58.4934 16.1166 59.3322 16.1166C60.2226 16.1166 60.9716 15.8241 61.5625 15.2472C61.9519 14.8653 62.1733 14.3388 62.2315 13.6661H59.3322V12.7268H63.2002C63.2468 12.9299 63.2601 13.1266 63.2601 13.3167Z" fill="white" stroke="white" stroke-width="0.16" stroke-miterlimit="10"/>
<path d="M69.3973 10.0602H65.7639V12.5302H69.0394V13.4694H65.7639V15.9394H69.3973V16.8965H64.7354V9.10303H69.3973V10.0602Z" fill="white" stroke="white" stroke-width="0.16" stroke-miterlimit="10"/>
<path d="M73.7279 16.8965H72.6993V10.0602H70.4707V9.10303H75.9581V10.0602H73.7279V16.8965Z" fill="white" stroke="white" stroke-width="0.16" stroke-miterlimit="10"/>
<path d="M79.9287 16.8965V9.10303H80.9556V16.8965H79.9287Z" fill="white" stroke="white" stroke-width="0.16" stroke-miterlimit="10"/>
<path d="M85.5081 16.8965H84.4879V10.0602H82.251V9.10303H87.7451V10.0602H85.5081V16.8965Z" fill="white" stroke="white" stroke-width="0.16" stroke-miterlimit="10"/>
<path d="M98.134 15.8939C97.3467 16.6821 96.3714 17.0753 95.208 17.0753C94.0379 17.0753 93.0626 16.6821 92.2753 15.8939C91.4898 15.1074 91.0986 14.1422 91.0986 12.9998C91.0986 11.8574 91.4898 10.8922 92.2753 10.1057C93.0626 9.31757 94.0379 8.92432 95.208 8.92432C96.3647 8.92432 97.34 9.31757 98.1273 10.1122C98.9195 10.9052 99.3107 11.8639 99.3107 12.9998C99.3107 14.1422 98.9195 15.1074 98.134 15.8939ZM93.036 15.2407C93.6285 15.8241 94.3492 16.1166 95.208 16.1166C96.0601 16.1166 96.7875 15.8241 97.3733 15.2407C97.9642 14.6573 98.2638 13.9082 98.2638 12.9998C98.2638 12.0914 97.9642 11.3423 97.3733 10.7589C96.7875 10.1756 96.0601 9.88307 95.208 9.88307C94.3492 9.88307 93.6285 10.1756 93.036 10.7589C92.4451 11.3423 92.1455 12.0914 92.1455 12.9998C92.1455 13.9082 92.4451 14.6573 93.036 15.2407Z" fill="white" stroke="white" stroke-width="0.16" stroke-miterlimit="10"/>
<path d="M100.754 16.8965V9.10303H102.002L105.884 15.1643H105.928L105.884 13.666V9.10303H106.91V16.8965H105.839L101.774 10.5363H101.729L101.774 12.041V16.8965H100.754Z" fill="white" stroke="white" stroke-width="0.16" stroke-miterlimit="10"/>
<path d="M90.8455 28.2783C87.7182 28.2783 85.1634 30.602 85.1634 33.8082C85.1634 36.9883 87.7182 39.3364 90.8455 39.3364C93.9796 39.3364 96.5344 36.9883 96.5344 33.8082C96.5344 30.602 93.9796 28.2783 90.8455 28.2783ZM90.8455 37.1589C89.1296 37.1589 87.6533 35.776 87.6533 33.8082C87.6533 31.8143 89.1296 30.4558 90.8455 30.4558C92.5615 30.4558 94.0445 31.8143 94.0445 33.8082C94.0445 35.776 92.5615 37.1589 90.8455 37.1589ZM78.4476 28.2783C75.3136 28.2783 72.7654 30.602 72.7654 33.8082C72.7654 36.9883 75.3136 39.3364 78.4476 39.3364C81.58 39.3364 84.1298 36.9883 84.1298 33.8082C84.1298 30.602 81.58 28.2783 78.4476 28.2783ZM78.4476 37.1589C76.73 37.1589 75.2487 35.776 75.2487 33.8082C75.2487 31.8143 76.73 30.4558 78.4476 30.4558C80.1636 30.4558 81.6399 31.8143 81.6399 33.8082C81.6399 35.776 80.1636 37.1589 78.4476 37.1589ZM63.6946 29.9732V32.3229H69.4417C69.2736 33.6359 68.8242 34.6012 68.1351 35.2739C67.2963 36.0864 65.9898 36.9883 63.6946 36.9883C60.1578 36.9883 57.3883 34.2014 57.3883 30.7483C57.3883 27.2952 60.1578 24.5083 63.6946 24.5083C65.607 24.5083 66.9984 25.2379 68.0253 26.1837L69.7213 24.5278C68.2849 23.1888 66.3742 22.1602 63.6946 22.1602C58.8446 22.1602 54.7686 26.013 54.7686 30.7483C54.7686 35.4835 58.8446 39.3364 63.6946 39.3364C66.316 39.3364 68.2849 38.4979 69.8328 36.9249C71.419 35.3763 71.9133 33.1988 71.9133 31.4405C71.9133 30.8945 71.8667 30.3924 71.7835 29.9732H63.6946ZM124.022 31.7948C123.554 30.5582 122.111 28.2783 119.172 28.2783C116.259 28.2783 113.834 30.5192 113.834 33.8082C113.834 36.9054 116.234 39.3364 119.451 39.3364C122.053 39.3364 123.554 37.7878 124.171 36.8859L122.241 35.6298C121.597 36.5495 120.719 37.1589 119.451 37.1589C118.191 37.1589 117.287 36.595 116.708 35.4835L124.283 32.4237L124.022 31.7948ZM116.299 33.6359C116.234 31.5039 117.995 30.4119 119.256 30.4119C120.245 30.4119 121.084 30.8945 121.364 31.5852L116.299 33.6359ZM110.142 39H112.632V22.75H110.142V39ZM106.065 29.51H105.981C105.422 28.8633 104.355 28.2783 103.004 28.2783C100.168 28.2783 97.5746 30.7093 97.5746 33.826C97.5746 36.9249 100.168 39.3364 103.004 39.3364C104.355 39.3364 105.422 38.7465 105.981 38.0803H106.065V38.8733C106.065 40.9874 104.908 42.1233 103.042 42.1233C101.521 42.1233 100.577 41.0508 100.188 40.1489L98.0223 41.0313C98.6465 42.497 100.299 44.3008 103.042 44.3008C105.961 44.3008 108.425 42.6238 108.425 38.5434V28.6147H106.065V29.51ZM103.217 37.1589C101.501 37.1589 100.065 35.7565 100.065 33.826C100.065 31.8777 101.501 30.4558 103.217 30.4558C104.908 30.4558 106.241 31.8777 106.241 33.826C106.241 35.7565 104.908 37.1589 103.217 37.1589ZM135.679 22.75H129.724V39H132.207V32.8429H135.679C138.437 32.8429 141.141 30.8945 141.141 27.7957C141.141 24.6984 138.43 22.75 135.679 22.75ZM135.744 30.5825H132.207V25.0104H135.744C137.598 25.0104 138.656 26.5135 138.656 27.7957C138.656 29.0534 137.598 30.5825 135.744 30.5825ZM151.094 28.2474C149.3 28.2474 147.434 29.0209 146.667 30.7353L148.871 31.6372C149.345 30.7353 150.217 30.4428 151.139 30.4428C152.427 30.4428 153.734 31.1984 153.754 32.5325V32.7032C153.305 32.4497 152.343 32.0743 151.159 32.0743C148.786 32.0743 146.367 33.3499 146.367 35.7305C146.367 37.908 148.311 39.3104 150.497 39.3104C152.168 39.3104 153.09 38.5743 153.669 37.7179H153.754V38.974H156.152V32.7405C156.152 29.8594 153.949 28.2474 151.094 28.2474ZM150.795 37.1524C149.982 37.1524 148.851 36.7592 148.851 35.776C148.851 34.5183 150.262 34.0357 151.484 34.0357C152.577 34.0357 153.09 34.2713 153.754 34.5817C153.559 36.0864 152.233 37.1524 150.795 37.1524ZM164.89 28.6033L162.036 35.6477H161.951L159 28.6033H156.322L160.756 38.4475L158.226 43.9254H160.821L167.653 28.6033H164.89ZM142.506 39H144.996V22.75H142.506V39Z" fill="white"/>
<path d="M14.0179 9.80044C13.6267 10.2002 13.4004 10.8226 13.4004 11.6286V40.3781C13.4004 41.1841 13.6267 41.8064 14.0179 42.2062L14.1144 42.2939L30.615 26.1902V25.8099L14.1144 9.7062L14.0179 9.80044Z" fill="url(#paint0_linear_367_1142)"/>
<path d="M36.1093 31.5605L30.6152 26.1899V25.8097L36.116 20.439L36.2392 20.5089L42.7535 24.1278C44.6126 25.1548 44.6126 26.8448 42.7535 27.8783L36.2392 31.4907L36.1093 31.5605Z" fill="url(#paint1_linear_367_1142)"/>
<path d="M36.2396 31.4907L30.6157 25.9998L14.0186 42.206C14.636 42.8397 15.643 42.9161 16.7881 42.2823L36.2396 31.4907Z" fill="url(#paint2_linear_367_1142)"/>
<path d="M36.2396 20.5091L16.7881 9.71751C15.643 9.09025 14.636 9.16663 14.0186 9.80038L30.6157 26L36.2396 20.5091Z" fill="url(#paint3_linear_367_1142)"/>
<defs>
<linearGradient id="paint0_linear_367_1142" x1="29.15" y1="40.6775" x2="7.3391" y2="18.3381" gradientUnits="userSpaceOnUse">
<stop stop-color="#00A0FF"/>
<stop offset="0.0066" stop-color="#00A1FF"/>
<stop offset="0.2601" stop-color="#00BEFF"/>
<stop offset="0.5122" stop-color="#00D2FF"/>
<stop offset="0.7604" stop-color="#00DFFF"/>
<stop offset="1" stop-color="#00E3FF"/>
</linearGradient>
<linearGradient id="paint1_linear_367_1142" x1="45.1744" y1="25.998" x2="12.9562" y2="25.998" gradientUnits="userSpaceOnUse">
<stop stop-color="#FFE000"/>
<stop offset="0.4087" stop-color="#FFBD00"/>
<stop offset="0.7754" stop-color="#FFA500"/>
<stop offset="1" stop-color="#FF9C00"/>
</linearGradient>
<linearGradient id="paint2_linear_367_1142" x1="33.1815" y1="23.0149" x2="3.6042" y2="-7.27908" gradientUnits="userSpaceOnUse">
<stop stop-color="#FF3A44"/>
<stop offset="1" stop-color="#C31162"/>
</linearGradient>
<linearGradient id="paint3_linear_367_1142" x1="9.84071" y1="51.7709" x2="23.0483" y2="38.2434" gradientUnits="userSpaceOnUse">
<stop stop-color="#32A071"/>
<stop offset="0.0685" stop-color="#2DA771"/>
<stop offset="0.4762" stop-color="#15CF74"/>
<stop offset="0.8009" stop-color="#06E775"/>
<stop offset="1" stop-color="#00F076"/>
</linearGradient>
</defs>
</svg>
