<svg width="1002" height="256" viewBox="0 0 1002 256" fill="none" xmlns="http://www.w3.org/2000/svg">
<path d="M515.645 68.9022L512.456 101.728H495.95L493.511 80.907L455.433 79.0313L448.681 130.239L493.511 128.176L491.26 145.996L447.18 143.182L440.24 197.016L464.437 199.642L463.687 208.271H399.911L400.849 199.642L413.792 197.016L428.985 80.3443L415.855 78.0934L416.98 68.9022H515.645Z" fill="#7E05A6"/>
<path d="M537.58 189.513C537.455 190.013 537.392 190.701 537.392 191.576C537.392 194.703 538.517 196.266 540.768 196.266C541.894 196.266 543.082 195.953 544.332 195.328C545.708 194.703 547.521 193.39 549.772 191.389L552.21 197.204C550.21 200.08 547.271 202.956 543.394 205.832C539.518 208.708 534.516 210.146 528.388 210.146C523.636 210.146 519.76 209.208 516.759 207.333C513.758 205.332 512.194 202.268 512.069 198.142C512.069 197.641 512.319 195.39 512.82 191.389L529.139 71.5283L517.321 67.7768L519.01 60.8365L550.897 57.085L555.212 59.5234L537.58 189.513Z" fill="#7E05A6"/>
<path d="M565.282 121.986C564.782 119.86 564.219 118.422 563.594 117.672C562.969 116.796 562.156 116.359 561.155 116.359C559.53 116.359 557.654 117.234 555.528 118.985L552.902 112.607C554.403 110.606 557.216 108.356 561.343 105.855C565.595 103.228 570.097 101.915 574.848 101.915C579.725 101.915 583.352 102.978 585.728 105.104C588.104 107.105 589.604 110.231 590.23 114.483L601.109 185.762L603.735 206.395L612.551 188.575C617.928 177.321 621.992 167.442 624.743 158.938C627.62 150.435 629.058 142.307 629.058 134.554C629.058 132.178 628.87 130.177 628.495 128.551C628.12 126.925 627.557 125.05 626.807 122.924C625.431 119.422 624.743 116.109 624.743 112.982C624.743 109.606 625.744 106.917 627.745 104.917C629.87 102.916 632.872 101.915 636.748 101.915C641.25 101.915 644.751 103.666 647.252 107.168C649.879 110.669 651.192 114.921 651.192 119.923C651.192 128.801 649.753 137.242 646.877 145.245C644.001 153.123 639.624 162.94 633.747 174.695C629.62 183.698 624.243 193.702 617.616 204.707C611.113 215.586 605.361 224.777 600.359 232.28C595.232 240.408 589.729 246.286 583.852 249.912C578.1 253.539 571.222 255.352 563.219 255.352C559.967 255.352 556.404 254.914 552.527 254.039C548.775 253.289 546.212 252.476 544.836 251.6L550.651 235.281C552.027 236.532 554.34 237.657 557.592 238.658C560.843 239.658 564.032 240.158 567.158 240.158C572.785 240.158 578.162 238.158 583.289 234.156C588.541 230.279 593.731 223.902 598.858 215.023H585.353L565.282 121.986Z" fill="#7E05A6"/>
<path d="M679.924 189.513C679.799 190.013 679.737 190.701 679.737 191.576C679.737 194.703 680.862 196.266 683.113 196.266C684.238 196.266 685.426 195.953 686.677 195.328C688.052 194.703 689.866 193.39 692.117 191.389L694.555 197.204C692.554 200.08 689.616 202.956 685.739 205.832C681.862 208.708 676.861 210.146 670.733 210.146C665.981 210.146 662.105 209.208 659.103 207.333C656.102 205.332 654.539 202.268 654.414 198.142C654.414 197.641 654.664 195.39 655.164 191.389L671.483 71.5283L659.666 67.7768L661.354 60.8365L693.242 57.085L697.556 59.5234L679.924 189.513Z" fill="#7E05A6"/>
<path d="M783.595 189.138C783.47 189.638 783.407 190.388 783.407 191.389C783.407 194.64 784.658 196.266 787.159 196.266C789.159 196.266 791.973 194.765 795.599 191.764L798.226 197.579C796.6 200.08 793.661 202.831 789.41 205.832C785.283 208.708 780.468 210.146 774.966 210.146C770.715 210.146 767.338 209.208 764.837 207.333C762.336 205.457 761.023 202.581 760.898 198.704L761.273 195.515C757.772 199.642 753.52 203.144 748.518 206.02C743.516 208.771 738.014 210.146 732.012 210.146C721.507 210.146 713.629 206.582 708.377 199.455C703.25 192.202 700.686 182.76 700.686 171.131C700.686 159.626 703.062 148.559 707.814 137.93C712.691 127.301 719.757 118.61 729.01 111.857C738.264 105.104 749.268 101.728 762.024 101.728C765.275 101.728 768.776 102.103 772.528 102.853C776.404 103.604 779.781 104.479 782.657 105.479L795.599 101.728L783.595 189.138ZM769.151 115.046C766.775 113.92 763.712 113.358 759.96 113.358C752.457 113.358 746.205 116.234 741.203 121.986C736.201 127.613 732.512 134.804 730.136 143.557C727.885 152.186 726.759 160.939 726.759 169.818C726.759 178.071 728.01 184.511 730.511 189.138C733.012 193.64 736.701 195.891 741.578 195.891C744.704 195.891 747.83 194.828 750.957 192.702C754.208 190.576 757.084 188.075 759.585 185.199L769.151 115.046Z" fill="#7E05A6"/>
<path d="M887.87 189.325C887.745 189.826 887.683 190.576 887.683 191.576C887.683 194.703 888.746 196.266 890.872 196.266C892.997 196.266 895.811 194.828 899.312 191.952L901.938 197.766C894.936 206.02 887.183 210.146 878.679 210.146C874.302 210.146 870.989 209.083 868.738 206.958C866.487 204.832 865.174 201.58 864.799 197.204V194.39C861.672 198.767 857.483 202.518 852.231 205.645C846.979 208.646 840.977 210.146 834.224 210.146C823.72 210.146 815.904 206.582 810.777 199.455C805.65 192.202 803.086 182.76 803.086 171.131C803.086 159.501 805.4 148.372 810.027 137.742C814.654 127.113 821.531 118.485 830.66 111.857C839.914 105.104 851.043 101.728 864.048 101.728C867.675 101.728 871.489 102.228 875.49 103.228L880.18 71.5283L866.674 67.7768L868.363 60.8365L902.126 57.085L906.815 59.5234L887.87 189.325ZM873.615 115.984C870.488 114.233 866.549 113.358 861.797 113.358C854.169 113.358 847.917 116.296 843.04 122.174C838.163 127.926 834.599 135.116 832.348 143.745C830.097 152.373 828.972 161.127 828.972 170.005C828.972 178.259 830.222 184.636 832.723 189.138C835.349 193.64 839.038 195.891 843.79 195.891C847.667 195.891 851.356 194.703 854.857 192.327C858.359 189.826 861.235 186.887 863.486 183.511L873.615 115.984Z" fill="#7E05A6"/>
<path d="M915.183 121.986C914.683 119.86 914.12 118.422 913.495 117.672C912.87 116.796 912.057 116.359 911.056 116.359C909.431 116.359 907.555 117.234 905.429 118.985L902.803 112.607C904.304 110.606 907.117 108.356 911.244 105.855C915.496 103.228 919.997 101.915 924.749 101.915C929.626 101.915 933.253 102.978 935.629 105.104C938.005 107.105 939.505 110.231 940.13 114.483L951.01 185.762L953.636 206.395L962.452 188.575C967.829 177.321 971.893 167.442 974.644 158.938C977.521 150.435 978.959 142.307 978.959 134.554C978.959 132.178 978.771 130.177 978.396 128.551C978.021 126.925 977.458 125.05 976.708 122.924C975.332 119.422 974.644 116.109 974.644 112.982C974.644 109.606 975.645 106.917 977.646 104.917C979.771 102.916 982.773 101.915 986.649 101.915C991.151 101.915 994.652 103.666 997.153 107.168C999.779 110.669 1001.09 114.921 1001.09 119.923C1001.09 128.801 999.654 137.242 996.778 145.245C993.902 153.123 989.525 162.94 983.648 174.695C979.521 183.698 974.144 193.702 967.516 204.707C961.014 215.586 955.262 224.777 950.26 232.28C945.133 240.408 939.63 246.286 933.753 249.912C928.001 253.539 921.123 255.352 913.12 255.352C909.868 255.352 906.304 254.914 902.428 254.039C898.676 253.289 896.113 252.476 894.737 251.6L900.552 235.281C901.928 236.532 904.241 237.657 907.492 238.658C910.744 239.658 913.933 240.158 917.059 240.158C922.686 240.158 928.063 238.158 933.19 234.156C938.442 230.279 943.632 223.902 948.759 215.023H935.254L915.183 121.986Z" fill="#7E05A6"/>
<path d="M338.415 170.757L323.971 166.103C320.02 164.857 315.76 165.79 312.644 168.494L311.397 169.638C309.735 171.093 307.344 171.508 305.369 170.677L292.248 165.123C293.429 150.978 292.485 135.437 288.257 118.705C288.257 118.705 284.886 117.776 279.062 116.846C299.942 98.1056 311.82 79.4488 306.378 72.4657C300.026 64.32 272.494 75.1627 244.883 96.6878C241.358 99.4358 238.005 102.224 234.846 105.012C236.65 101.203 238.392 97.2053 240.054 93.0578C253.05 60.5478 255.809 31.0847 246.217 27.2506C236.624 23.4164 218.314 46.6618 205.317 79.1718C197.67 98.3024 193.567 116.376 193.439 128.797C193.395 128.819 193.348 128.841 193.304 128.862C193.304 128.862 184.269 114.477 174.939 106.379C175.369 106.142 175.777 105.843 176.153 105.464C176.153 105.464 190.698 92.8391 191.416 76.5039H191.445C191.453 76.0702 191.449 75.6474 191.445 75.2283C191.445 75.0606 191.438 74.8966 191.434 74.729C191.434 74.5941 191.431 74.4556 191.427 74.3244C191.424 74.2078 191.42 74.0875 191.413 73.9709C190.968 62.3664 186.368 57.6503 182.359 55.7587C180.847 54.9715 178.912 54.3811 176.615 54.5123C176.43 54.5196 176.324 54.5305 176.324 54.5305C176.324 54.5305 172.738 45.521 158.677 46.0422C158.677 46.0422 143.059 46.2171 138.726 55.0517C138.726 55.0517 126.189 56.5059 127.118 65.9127C127.118 65.9127 129.778 62.1551 131.481 63.7113C131.481 63.7113 126.203 68.7372 128.047 75.3194C128.047 75.3194 127.464 77.0506 127.293 82.0765C127.293 82.0765 126.065 84.5002 125.926 89.1252L120.671 90.2223C119.391 90.4883 118.057 90.3207 116.884 89.7448L89.4581 76.2707L65.8664 65.9054L62.2911 65.9236L40.4635 44.096C46.8233 43.6295 50.0962 34.9917 44.294 30.6072C43.9769 30.3667 44.006 29.8856 44.345 29.6815C51.3827 25.4975 47.5851 14.673 39.4758 15.8028C39.0822 15.8575 38.7614 15.4967 38.8598 15.114C40.879 7.17965 30.5392 2.20839 25.6044 8.74319C25.3675 9.06027 24.8827 9.03112 24.6786 8.69217C20.4983 1.65805 9.6701 5.45575 10.8036 13.565C10.8582 13.9586 10.4974 14.2794 10.1147 14.181C2.17676 12.1655 -2.79085 22.5053 3.74395 27.4401C4.06103 27.6806 4.03187 28.1617 3.69292 28.3658C-3.34483 32.5498 0.452858 43.3743 8.56213 42.2445C8.95575 42.1898 9.27648 42.5507 9.17807 42.9333C7.15895 50.8677 17.4987 55.8389 22.4335 49.3041C22.6741 48.9871 23.1552 49.0162 23.3593 49.3552C27.1059 55.6603 36.1774 53.2658 37.2161 46.8695L56.2665 65.9199C56.1827 65.9163 56.1025 65.9054 56.015 65.9054C55.7599 65.9054 55.5157 65.9236 55.2788 65.9564C53.7554 66.1714 52.6183 67.0243 52.6183 68.0484C52.6183 68.9377 53.4748 69.6994 54.6957 70.0238C54.2729 70.381 54.0214 70.822 54.0214 71.2994C54.0214 71.9554 54.4916 72.5422 55.2242 72.9358C54.364 73.242 53.7809 73.8215 53.7809 74.4884L54.4624 84.0774C54.4624 84.0774 54.4624 84.1102 54.4624 84.1248L54.4697 84.2086H54.4734C54.6009 85.4186 55.2132 86.3444 56.0479 86.4391C57.1011 86.5558 58.1071 85.2947 58.2929 83.6255L58.836 80.6333C66.2491 84.7553 75.3352 86.5667 75.3352 86.5667L79.1657 89.045C79.1657 89.045 93.4234 106.834 105.76 111.889C105.76 111.889 114.682 116.201 131.481 112.633C131.481 112.633 131.502 118.588 127.337 130.801C127.337 130.801 117.226 149.123 136.299 162.167C136.299 162.167 141.215 178.823 150.932 187.151C151.074 187.271 151.22 187.402 151.369 187.534C146.423 195.552 145.968 201.164 145.968 201.164L143.431 203.818L131.05 210.269C130.799 210.4 130.58 210.586 130.409 210.812L123.914 219.457C123.284 220.295 123.455 221.483 124.293 222.114C124.636 222.369 125.033 222.493 125.43 222.493C125.667 222.493 125.897 222.445 126.119 222.362L119.821 231.229C119.213 232.085 119.417 233.27 120.27 233.875C120.528 234.061 120.82 234.166 121.115 234.207C121.075 234.72 121.239 235.249 121.622 235.657C121.994 236.054 122.497 236.251 123.003 236.251C123.47 236.251 123.94 236.08 124.304 235.734L124.599 235.457C124.596 235.858 124.709 236.262 124.968 236.612C125.339 237.111 125.912 237.374 126.491 237.374C126.885 237.374 127.286 237.25 127.624 236.998L131.094 235.355C130.179 235.868 129.859 237.027 130.373 237.939C130.722 238.558 131.364 238.904 132.027 238.904C132.341 238.904 132.661 238.824 132.957 238.66L146.063 233.212C149.441 231.808 152.197 229.228 153.826 225.955L158.986 215.579C158.986 215.579 164.854 211.945 169.953 206.675C185.898 222.099 211.407 242.345 250.59 254.328C250.59 254.328 272.104 234.633 284.387 200.793C292.062 199.262 304.888 195.592 313.584 187.198C327.339 183.032 335.226 178.145 339.176 174.978C339.683 174.511 340 173.848 340 173.104C340 172.04 339.344 171.136 338.418 170.754L338.415 170.757Z" fill="#7E05A6"/>
<path d="M17.5723 65.534C26.5897 77.5048 17.5723 88.3261 17.5723 88.3261C17.5723 88.3261 28.3937 79.3087 40.3645 88.3261C31.3471 76.3554 40.3645 65.534 40.3645 65.534C40.3645 65.534 29.5431 74.5514 17.5723 65.534Z" fill="#7E05A6"/>
<path d="M74.4194 25.6399C68.2137 17.4033 73.0052 8.54121 73.0052 8.54121C73.0052 8.54121 65.5573 14.7469 57.3208 8.5412C63.5265 16.7777 57.3208 24.2256 57.3208 24.2256C57.3208 24.2256 66.1829 19.4341 74.4194 25.6399Z" fill="#7E05A6"/>
<path d="M239.503 213.29C237.818 225.279 226.485 226.308 226.485 226.308C226.485 226.308 237.818 227.338 239.503 239.326C241.188 227.338 252.521 226.308 252.521 226.308C252.521 226.308 241.188 225.279 239.503 213.29Z" fill="#FFF6F8"/>
</svg>
