<svg width="188" height="48" viewBox="0 0 188 48" fill="none" xmlns="http://www.w3.org/2000/svg">
<path d="M96.9265 12.7385L96.3282 18.8968H93.2315L92.774 14.9907L85.6303 14.6388L84.3634 24.2458L92.774 23.8587L92.3517 27.2018L84.0819 26.674L82.7798 36.7737L87.3194 37.2663L87.1787 38.8851H75.2139L75.3898 37.2663L77.818 36.7737L80.6684 14.8851L78.2051 14.4628L78.4162 12.7385H96.9265Z" fill="#FEBFF8"/>
<path d="M101.042 35.366C101.018 35.4599 101.006 35.5889 101.006 35.7531C101.006 36.3397 101.218 36.6329 101.64 36.6329C101.851 36.6329 102.074 36.5743 102.308 36.457C102.566 36.3397 102.907 36.0933 103.329 35.718L103.786 36.8089C103.411 37.3485 102.86 37.888 102.132 38.4276C101.405 38.9672 100.467 39.237 99.3172 39.237C98.4257 39.237 97.6985 39.0611 97.1354 38.7092C96.5724 38.3338 96.2791 37.759 96.2556 36.9848C96.2556 36.891 96.3026 36.4687 96.3964 35.718L99.458 13.2312L97.241 12.5273L97.5577 11.2253L103.54 10.5215L104.349 10.979L101.042 35.366Z" fill="#FEBFF8"/>
<path d="M106.239 22.6974C106.145 22.2986 106.039 22.0288 105.922 21.888C105.805 21.7238 105.652 21.6417 105.465 21.6417C105.16 21.6417 104.808 21.8059 104.409 22.1344L103.916 20.9379C104.198 20.5625 104.726 20.1402 105.5 19.671C106.297 19.1784 107.142 18.932 108.033 18.932C108.948 18.932 109.629 19.1315 110.075 19.5303C110.52 19.9056 110.802 20.4922 110.919 21.2898L112.96 34.6622L113.453 38.5332L115.107 35.1901C116.116 33.0787 116.878 31.2253 117.394 29.63C117.934 28.0347 118.204 26.5097 118.204 25.0552C118.204 24.6095 118.168 24.2341 118.098 23.9291C118.028 23.6241 117.922 23.2722 117.781 22.8734C117.523 22.2165 117.394 21.5948 117.394 21.0083C117.394 20.3749 117.582 19.8705 117.957 19.4951C118.356 19.1197 118.919 18.932 119.646 18.932C120.491 18.932 121.148 19.2605 121.617 19.9174C122.11 20.5743 122.356 21.3719 122.356 22.3103C122.356 23.976 122.086 25.5596 121.547 27.0611C121.007 28.5391 120.186 30.3807 119.083 32.586C118.309 34.2751 117.3 36.152 116.057 38.2165C114.837 40.2575 113.758 41.9819 112.819 43.3895C111.858 44.9144 110.825 46.0171 109.723 46.6974C108.643 47.3778 107.353 47.7179 105.852 47.7179C105.242 47.7179 104.573 47.6358 103.846 47.4716C103.142 47.3308 102.661 47.1784 102.403 47.0141L103.494 43.9526C103.752 44.1872 104.186 44.3983 104.796 44.586C105.406 44.7737 106.004 44.8675 106.591 44.8675C107.646 44.8675 108.655 44.4921 109.617 43.7414C110.602 43.0141 111.576 41.8177 112.538 40.152H110.004L106.239 22.6974Z" fill="#FEBFF8"/>
<path d="M127.747 35.366C127.723 35.4599 127.711 35.5889 127.711 35.7531C127.711 36.3397 127.923 36.6329 128.345 36.6329C128.556 36.6329 128.779 36.5743 129.013 36.457C129.271 36.3397 129.612 36.0933 130.034 35.718L130.491 36.8089C130.116 37.3485 129.565 37.888 128.837 38.4276C128.11 38.9672 127.172 39.237 126.022 39.237C125.131 39.237 124.403 39.0611 123.84 38.7092C123.277 38.3338 122.984 37.759 122.961 36.9848C122.961 36.891 123.008 36.4687 123.101 35.718L126.163 13.2312L123.946 12.5273L124.263 11.2253L130.245 10.5215L131.054 10.979L127.747 35.366Z" fill="#FEBFF8"/>
<path d="M147.196 35.2957C147.173 35.3895 147.161 35.5303 147.161 35.718C147.161 36.3279 147.395 36.6329 147.865 36.6329C148.24 36.6329 148.768 36.3514 149.448 35.7883L149.941 36.8792C149.636 37.3485 149.085 37.8646 148.287 38.4276C147.513 38.9672 146.609 39.237 145.577 39.237C144.78 39.237 144.146 39.0611 143.677 38.7092C143.208 38.3572 142.961 37.8177 142.938 37.0904L143.008 36.4921C142.351 37.2663 141.554 37.9232 140.615 38.4628C139.677 38.9789 138.645 39.237 137.519 39.237C135.548 39.237 134.07 38.5684 133.085 37.2311C132.123 35.8704 131.642 34.0992 131.642 31.9174C131.642 29.759 132.087 27.6828 132.979 25.6886C133.894 23.6945 135.219 22.064 136.955 20.7971C138.692 19.5303 140.756 18.8968 143.149 18.8968C143.759 18.8968 144.416 18.9672 145.12 19.108C145.847 19.2488 146.48 19.413 147.02 19.6007L149.448 18.8968L147.196 35.2957ZM144.486 21.3954C144.041 21.1842 143.466 21.0787 142.762 21.0787C141.354 21.0787 140.181 21.6183 139.243 22.6974C138.304 23.7531 137.612 25.1021 137.167 26.7444C136.744 28.3631 136.533 30.0053 136.533 31.671C136.533 33.2194 136.768 34.4276 137.237 35.2957C137.706 36.1402 138.398 36.5625 139.313 36.5625C139.9 36.5625 140.486 36.3631 141.073 35.9643C141.683 35.5655 142.222 35.0963 142.692 34.5567L144.486 21.3954Z" fill="#FEBFF8"/>
<path d="M166.759 35.3309C166.735 35.4247 166.724 35.5655 166.724 35.7531C166.724 36.3397 166.923 36.6329 167.322 36.6329C167.721 36.6329 168.249 36.3631 168.906 35.8235L169.398 36.9144C168.084 38.4628 166.63 39.237 165.035 39.237C164.213 39.237 163.592 39.0376 163.169 38.6388C162.747 38.2399 162.501 37.63 162.43 36.8089V36.281C161.844 37.1021 161.058 37.8059 160.073 38.3924C159.087 38.9555 157.961 39.237 156.694 39.237C154.724 39.237 153.257 38.5684 152.296 37.2311C151.334 35.8704 150.853 34.0992 150.853 31.9174C150.853 29.7356 151.287 27.6476 152.155 25.6534C153.023 23.6593 154.313 22.0405 156.026 20.7971C157.762 19.5303 159.85 18.8968 162.29 18.8968C162.97 18.8968 163.686 18.9907 164.436 19.1784L165.316 13.2312L162.782 12.5273L163.099 11.2253L169.433 10.5215L170.313 10.979L166.759 35.3309ZM164.084 21.5713C163.498 21.2429 162.759 21.0787 161.867 21.0787C160.436 21.0787 159.263 21.63 158.348 22.7326C157.433 23.8118 156.765 25.1608 156.342 26.7795C155.92 28.3983 155.709 30.0405 155.709 31.7062C155.709 33.2546 155.944 34.4511 156.413 35.2957C156.906 36.1402 157.598 36.5625 158.489 36.5625C159.216 36.5625 159.908 36.3397 160.565 35.8939C161.222 35.4247 161.762 34.8734 162.184 34.2399L164.084 21.5713Z" fill="#FEBFF8"/>
<path d="M171.883 22.6974C171.789 22.2986 171.684 22.0288 171.566 21.888C171.449 21.7238 171.296 21.6417 171.109 21.6417C170.804 21.6417 170.452 21.8059 170.053 22.1344L169.56 20.9379C169.842 20.5625 170.37 20.1402 171.144 19.671C171.942 19.1784 172.786 18.932 173.678 18.932C174.593 18.932 175.273 19.1315 175.719 19.5303C176.164 19.9056 176.446 20.4922 176.563 21.2898L178.604 34.6622L179.097 38.5332L180.751 35.1901C181.76 33.0787 182.522 31.2253 183.038 29.63C183.578 28.0347 183.848 26.5097 183.848 25.0552C183.848 24.6095 183.813 24.2341 183.742 23.9291C183.672 23.6241 183.566 23.2722 183.425 22.8734C183.167 22.2165 183.038 21.5948 183.038 21.0083C183.038 20.3749 183.226 19.8705 183.601 19.4951C184 19.1197 184.563 18.932 185.291 18.932C186.135 18.932 186.792 19.2605 187.261 19.9174C187.754 20.5743 188 21.3719 188 22.3103C188 23.976 187.73 25.5596 187.191 27.0611C186.651 28.5391 185.83 30.3807 184.728 32.586C183.953 34.2751 182.945 36.152 181.701 38.2165C180.481 40.2575 179.402 41.9819 178.464 43.3895C177.502 44.9144 176.469 46.0171 175.367 46.6974C174.288 47.3778 172.997 47.7179 171.496 47.7179C170.886 47.7179 170.217 47.6358 169.49 47.4716C168.786 47.3308 168.305 47.1784 168.047 47.0141L169.138 43.9526C169.396 44.1872 169.83 44.3983 170.44 44.586C171.05 44.7737 171.648 44.8675 172.235 44.8675C173.291 44.8675 174.299 44.4921 175.261 43.7414C176.247 43.0141 177.22 41.8177 178.182 40.152H175.648L171.883 22.6974Z" fill="#FEBFF8"/>
<g clip-path="url(#clip0_367_1200)">
<path d="M7.75071 15.3828C5.99176 15.3828 4.56118 13.9522 4.56118 12.1932C4.56118 12.1317 4.51151 12.082 4.44999 12.082C4.38847 12.082 4.33881 12.1317 4.33881 12.1932C4.33881 13.9522 2.90822 15.3828 1.14927 15.3828C1.08775 15.3828 1.03809 15.4324 1.03809 15.4939C1.03809 15.5555 1.08775 15.6051 1.14927 15.6051C2.90822 15.6051 4.33881 17.0357 4.33881 18.7947C4.33881 18.8562 4.38847 18.9058 4.44999 18.9058C4.51151 18.9058 4.56118 18.8562 4.56118 18.7947C4.56118 17.0357 5.99176 15.6051 7.75071 15.6051C7.81223 15.6051 7.8619 15.5555 7.8619 15.4939C7.8619 15.4324 7.81223 15.3828 7.75071 15.3828Z" fill="#FEBFF8"/>
</g>
<g clip-path="url(#clip1_367_1200)">
<path d="M13.9472 5.75824C12.9728 5.75824 12.1803 4.96572 12.1803 3.99128C12.1803 3.9572 12.1527 3.92969 12.1187 3.92969C12.0846 3.92969 12.0571 3.9572 12.0571 3.99128C12.0571 4.96572 11.2645 5.75824 10.2901 5.75824C10.256 5.75824 10.2285 5.78575 10.2285 5.81984C10.2285 5.85392 10.256 5.88143 10.2901 5.88143C11.2645 5.88143 12.0571 6.67396 12.0571 7.64839C12.0571 7.68247 12.0846 7.70999 12.1187 7.70999C12.1527 7.70999 12.1803 7.68247 12.1803 7.64839C12.1803 6.67396 12.9728 5.88143 13.9472 5.88143C13.9813 5.88143 14.0088 5.85392 14.0088 5.81984C14.0088 5.78575 13.9813 5.75824 13.9472 5.75824Z" fill="#FEBFF8"/>
</g>
<g clip-path="url(#clip2_367_1200)">
<path d="M15.875 21.5454C14.9005 21.5454 14.108 20.7528 14.108 19.7784C14.108 19.7443 14.0805 19.7168 14.0464 19.7168C14.0123 19.7168 13.9848 19.7443 13.9848 19.7784C13.9848 20.7528 13.1923 21.5454 12.2178 21.5454C12.1838 21.5454 12.1562 21.5729 12.1562 21.6069C12.1562 21.641 12.1838 21.6685 12.2178 21.6685C13.1923 21.6685 13.9848 22.4611 13.9848 23.4355C13.9848 23.4696 14.0123 23.4971 14.0464 23.4971C14.0805 23.4971 14.108 23.4696 14.108 23.4355C14.108 22.4611 14.9005 21.6685 15.875 21.6685C15.909 21.6685 15.9365 21.641 15.9365 21.6069C15.9365 21.5729 15.909 21.5454 15.875 21.5454Z" fill="#FEBFF8"/>
</g>
<path d="M7.05812 6.80419L6.50293 7.35938L16.3148 17.1713L16.87 16.6161L7.05812 6.80419Z" fill="#FEBFF8"/>
<path d="M11.1699 12.7438L13.123 12.7344L12.3208 13.6803L11.1699 12.7438Z" fill="#FEBFF8"/>
<path d="M7.16544 1.86549C7.53752 0.402397 5.63108 -0.513931 4.72106 0.690602C4.67691 0.748621 4.58799 0.744207 4.55078 0.681142C3.78013 -0.616726 1.78351 0.0832904 1.99225 1.57855C2.00234 1.65107 1.93613 1.71036 1.86486 1.69207C0.402397 1.31999 -0.513931 3.22706 0.690602 4.13645C0.748621 4.18059 0.744207 4.26951 0.681142 4.30672C-0.616726 5.078 0.0832904 7.07399 1.57855 6.86588C1.65107 6.85579 1.71036 6.92201 1.69207 6.99327C1.31999 8.45637 3.22643 9.3727 4.13645 8.16816C4.18059 8.11014 4.26951 8.11456 4.30672 8.17762C5.078 9.47549 7.07399 8.77547 6.86588 7.28021C6.85579 7.20769 6.92201 7.14841 6.99327 7.1667C8.45637 7.53878 9.3727 5.63234 8.16816 4.72232C8.11014 4.67817 8.11456 4.58925 8.17762 4.55204C9.47549 3.78076 8.77547 1.78477 7.28021 1.99288C7.20769 2.00297 7.14841 1.93676 7.1667 1.86549H7.16544Z" fill="#FEBFF8"/>
<path d="M24.2606 17.0007L23.227 17.217C22.9911 17.2662 22.7452 17.2353 22.5289 17.1293L17.4724 14.6452L13.1228 12.7344L11.9038 13.0093C11.823 12.8498 11.5866 12.7344 11.3065 12.7344C10.9603 12.7344 10.6797 12.9116 10.6797 13.1298C10.6797 13.2938 10.838 13.4344 11.0631 13.4943C10.9855 13.5599 10.9389 13.6412 10.9389 13.7295C10.9389 13.8506 11.0253 13.9585 11.1609 14.031C11.0019 14.0871 10.8947 14.1943 10.8947 14.3173L11.0202 16.085C11.0202 16.085 11.0202 16.0913 11.0209 16.0938L11.0221 16.109H11.0228C11.0467 16.3316 11.1596 16.5031 11.3129 16.5201C11.5071 16.5416 11.6925 16.3095 11.7266 16.0011L11.8268 15.4493C13.1934 16.2099 14.8691 16.5435 14.8691 16.5435L15.5754 17.0007C15.5754 17.0007 18.2039 20.2807 20.4787 21.2128C20.4787 21.2128 22.1234 22.0074 25.2205 21.3496L24.2613 17.0007H24.2606Z" fill="#FEBFF8"/>
<path d="M24.7441 17.1718C23.8221 17.1718 23.0723 16.422 23.0723 15.5C23.0723 14.578 23.8221 13.8281 24.7441 13.8281C25.6661 13.8281 26.4159 14.578 26.4159 15.5C26.4159 16.422 25.6661 17.1718 24.7441 17.1718ZM24.7441 14.1352C23.9911 14.1352 23.3788 14.7476 23.3788 15.5006C23.3788 16.2536 23.9911 16.8659 24.7441 16.8659C25.4971 16.8659 26.1095 16.2536 26.1095 15.5006C26.1095 14.7476 25.4971 14.1352 24.7441 14.1352Z" fill="#FEBFF8"/>
<path d="M36.2755 14.4523C36.2755 14.4214 36.2743 14.3912 36.2736 14.3603C36.2736 14.335 36.273 14.3098 36.2717 14.2852C36.2711 14.2638 36.2698 14.2417 36.2692 14.2203C36.1872 12.0805 35.339 11.2114 34.5999 10.8621C34.3205 10.717 33.9648 10.6079 33.541 10.6325C33.5064 10.6338 33.4874 10.6357 33.4874 10.6357C33.4874 10.6357 32.8259 8.97454 30.2339 9.0704C30.2339 9.0704 27.3544 9.10256 26.556 10.7315C26.556 10.7315 24.2447 10.9995 24.4156 12.7345C24.4156 12.7345 24.9062 12.0414 25.2197 12.3289C25.2197 12.3289 24.2466 13.2554 24.5865 14.4694C24.5865 14.4694 24.4793 14.7891 24.4471 15.7149C24.4471 15.7149 23.5831 17.4113 25.0374 20.5242L25.2197 21.3503C25.2197 21.3503 29.7181 21.9122 31.2512 19.8677C31.2512 19.8677 32.6884 20.7941 33.4553 20.0272C33.4553 20.0272 36.1374 17.6995 36.2692 14.6882H36.2749C36.2761 14.6081 36.2755 14.5299 36.2749 14.453L36.2755 14.4523Z" fill="#FEBFF8"/>
<path d="M25.2203 21.3489C25.2203 21.3489 25.2241 22.4469 24.4566 24.6983C24.4566 24.6983 22.5924 28.076 26.1089 30.4813C26.1089 30.4813 27.0151 33.5519 28.8062 35.0875C30.5972 36.6232 35.7149 43.967 47.1788 47.4728C47.1788 47.4728 57.9514 37.6127 54.1247 22.4671C54.1247 22.4671 45.249 20.024 36.618 24.3401C36.618 24.3401 34.4195 20.8387 32.4652 19.6172L25.2203 21.3489Z" fill="#FEBFF8"/>
<path d="M29.2765 34.3125C29.2765 34.3125 27.7244 36.6144 27.1115 38.4394L26.6435 38.9282L24.3606 40.1176C24.3145 40.1416 24.2742 40.1762 24.2426 40.2179L23.0451 41.8115C22.929 41.966 22.9599 42.1855 23.1144 42.3015C23.1775 42.3488 23.2513 42.3715 23.3244 42.3715C23.3679 42.3715 23.4108 42.3633 23.4512 42.3476L22.2902 43.9822C22.1785 44.1398 22.2151 44.358 22.3728 44.4703C22.4207 44.5044 22.4743 44.5239 22.5286 44.5315C22.521 44.6267 22.5513 44.7238 22.6219 44.7989C22.6906 44.872 22.7833 44.9086 22.8767 44.9086C22.9631 44.9086 23.0488 44.8771 23.1169 44.8134L23.1712 44.7623C23.1706 44.8361 23.1914 44.9111 23.2393 44.9748C23.308 45.0669 23.4134 45.1155 23.5199 45.1155C23.5925 45.1155 23.6662 45.0927 23.7287 45.0461L24.3681 44.7427C24.1998 44.8373 24.1399 45.0511 24.2351 45.2195C24.2994 45.3337 24.418 45.398 24.5403 45.398C24.5983 45.398 24.6576 45.3835 24.7118 45.3532L27.1279 44.3486C27.7509 44.0894 28.2592 43.6145 28.5594 43.0104L29.5111 41.0976C29.5111 41.0976 32.3181 39.3602 32.8194 37.4222C33.3208 35.4842 29.2771 34.3144 29.2771 34.3144L29.2765 34.3125Z" fill="#FEBFF8"/>
<path d="M45.0588 15.9903C48.5301 9.97784 49.9061 4.27354 48.1322 3.24937C46.3583 2.22521 42.1062 6.26902 38.6349 12.2815C35.1636 18.2939 33.7876 23.9982 35.5615 25.0224C37.3355 26.0465 41.5875 22.0027 45.0588 15.9903Z" fill="#FEBFF8"/>
<path d="M51.6179 20.7398C57.9485 17.3936 62.1626 12.9443 61.0303 10.8021C59.8979 8.65982 53.848 9.63586 47.5173 12.9821C41.1867 16.3283 36.9726 20.7776 38.105 22.9199C39.2373 25.0621 45.2873 24.0861 51.6179 20.7398Z" fill="#FEBFF8"/>
<path d="M52.1361 32.2617L55.2774 33.6346C56.4289 34.066 56.5317 33.7172 56.5317 33.7172C56.5317 33.7172 57.0192 32.1545 58.6091 32.9006C58.6091 32.9006 60.086 33.7778 61.4116 33.7866C61.4854 33.7866 61.5491 33.8364 61.5649 33.9083L61.575 33.9544C61.5939 34.0408 61.5371 34.1259 61.4501 34.1417L60.0785 34.3895C60.0066 34.4028 59.9914 34.4986 60.0558 34.532C60.3004 34.6588 60.7614 34.86 61.2811 34.8934C61.2811 34.8934 63.1068 35.2226 63.7633 37.3731C63.7633 37.3731 64.0288 37.9836 63.8031 38.6155C63.7583 38.7189 63.6668 38.8532 63.4928 38.8381C63.482 38.8375 63.4707 38.8349 63.4587 38.833C63.4511 38.8318 63.4442 38.8305 63.4366 38.8286C63.4322 38.8274 63.4278 38.8274 63.4228 38.8261C63.4196 38.8255 63.4184 38.8255 63.4152 38.8242C63.4139 38.8242 63.4127 38.8242 63.4108 38.823C63.1793 38.7675 62.7902 38.5808 62.1577 38.0674C62.1577 38.0674 62.1558 38.0662 62.1558 38.0655C62.1255 38.041 62.0953 38.0164 62.0637 37.9905C61.884 37.8505 61.4539 37.5572 60.8794 37.4311C60.8781 37.4311 60.8769 37.4305 60.8756 37.4305C60.8005 37.4141 60.723 37.4008 60.6429 37.3914L59.4396 37.1877C58.6217 37.0294 57.4865 36.7986 56.8174 36.6163C54.4947 36.388 51.1611 37.2274 51.1611 37.2274L52.1342 32.2624L52.1361 32.2617Z" fill="#FEBFF8"/>
<path d="M48.5183 39.6288C46.7593 39.6288 45.3288 38.1983 45.3288 36.4393C45.3288 36.3778 45.2791 36.3281 45.2176 36.3281C45.156 36.3281 45.1064 36.3778 45.1064 36.4393C45.1064 38.1983 43.6758 39.6288 41.9168 39.6288C41.8553 39.6288 41.8057 39.6785 41.8057 39.74C41.8057 39.8016 41.8553 39.8512 41.9168 39.8512C43.6758 39.8512 45.1064 41.2818 45.1064 43.0407C45.1064 43.1023 45.156 43.1519 45.2176 43.1519C45.2791 43.1519 45.3288 43.1023 45.3288 43.0407C45.3288 41.2818 46.7593 39.8512 48.5183 39.8512C48.5798 39.8512 48.6295 39.8016 48.6295 39.74C48.6295 39.6785 48.5798 39.6288 48.5183 39.6288Z" fill="#77069C"/>
<defs>
<clipPath id="clip0_367_1200">
<rect width="6.82381" height="6.82381" fill="white" transform="translate(1.03809 12.082)"/>
</clipPath>
<clipPath id="clip1_367_1200">
<rect width="3.7803" height="3.7803" fill="white" transform="translate(10.2285 3.92969)"/>
</clipPath>
<clipPath id="clip2_367_1200">
<rect width="3.7803" height="3.7803" fill="white" transform="translate(12.1562 19.7168)"/>
</clipPath>
</defs>
</svg>
