<svg width="35" height="32" viewBox="0 0 35 32" fill="none" xmlns="http://www.w3.org/2000/svg">
<path d="M33.71 15.4786C24.9116 15.4786 17.7556 8.76993 17.7556 0.521399C17.7556 0.232892 17.5072 0 17.1995 0C16.8917 0 16.6433 0.232892 16.6433 0.521399C16.6433 8.76993 9.48741 15.4786 0.688972 15.4786C0.38123 15.4786 0.132812 15.7115 0.132812 16C0.132812 16.2885 0.38123 16.5214 0.688972 16.5214C9.48741 16.5214 16.6433 23.2301 16.6433 31.4786C16.6433 31.7671 16.8917 32 17.1995 32C17.5072 32 17.7556 31.7671 17.7556 31.4786C17.7556 23.2301 24.9116 16.5214 33.71 16.5214C34.0177 16.5214 34.2661 16.2885 34.2661 16C34.2661 15.7115 34.0177 15.4786 33.71 15.4786Z" fill="#FFF6F8"/>
</svg>
