<svg width="24" height="24" viewBox="0 0 24 24" fill="none" xmlns="http://www.w3.org/2000/svg">
<rect width="23.6" height="23.6" rx="6" fill="#DEA516"/>
<g clip-path="url(#clip0_367_1558)">
<path d="M18.704 9.93014C18.5847 9.55033 18.3463 9.21901 18.0241 8.98516C17.7019 8.75131 17.313 8.62736 16.9149 8.63164H14.3663L13.5923 6.21897C13.4705 5.8392 13.2313 5.5079 12.9092 5.27285C12.587 5.03779 12.1985 4.91113 11.7997 4.91113C11.4009 4.91113 11.0124 5.03779 10.6902 5.27285C10.368 5.5079 10.1288 5.8392 10.0071 6.21897L9.23301 8.63164H6.68442C6.28761 8.63221 5.90112 8.75816 5.58016 8.9915C5.2592 9.22485 5.0202 9.55365 4.89728 9.93095C4.77436 10.3082 4.77381 10.7147 4.89572 11.0924C5.01763 11.47 5.25576 11.7994 5.57609 12.0336L7.65042 13.5503L6.86176 15.9927C6.7343 16.3715 6.73269 16.7814 6.85715 17.1612C6.98162 17.541 7.22549 17.8704 7.55242 18.1003C7.87375 18.3376 8.26315 18.4647 8.6626 18.4627C9.06204 18.4607 9.45015 18.3297 9.76909 18.0892L11.7997 16.5947L13.8308 18.0875C14.1516 18.3234 14.5389 18.4516 14.9371 18.4535C15.3352 18.4554 15.7238 18.3311 16.0468 18.0983C16.3698 17.8655 16.6107 17.5363 16.7348 17.1579C16.859 16.7796 16.8599 16.3716 16.7376 15.9927L15.9489 13.5503L18.0256 12.0336C18.3496 11.8024 18.5905 11.4729 18.7127 11.0941C18.8349 10.7152 18.8318 10.3071 18.704 9.93014ZM17.3373 11.0916L14.9199 12.8585C14.8206 12.9309 14.7468 13.0328 14.7088 13.1498C14.6709 13.2667 14.6709 13.3926 14.7088 13.5095L15.6275 16.3503C15.674 16.4944 15.6736 16.6495 15.6264 16.7934C15.5791 16.9372 15.4875 17.0624 15.3647 17.1509C15.2418 17.2394 15.0941 17.2866 14.9427 17.2858C14.7913 17.2851 14.644 17.2363 14.5221 17.1466L12.145 15.3966C12.0449 15.323 11.9239 15.2834 11.7997 15.2834C11.6754 15.2834 11.5545 15.323 11.4543 15.3966L9.07726 17.1466C8.95539 17.2375 8.80772 17.2873 8.65566 17.2887C8.5036 17.29 8.35506 17.243 8.23156 17.1542C8.10806 17.0655 8.01603 16.9398 7.9688 16.7952C7.92158 16.6507 7.92162 16.4948 7.96892 16.3503L8.89059 13.5095C8.92846 13.3926 8.92843 13.2667 8.89051 13.1498C8.85259 13.0328 8.77871 12.9309 8.67942 12.8585L6.26209 11.0916C6.14035 11.0024 6.04989 10.8771 6.00364 10.7335C5.95738 10.5899 5.9577 10.4353 6.00454 10.2919C6.05138 10.1484 6.14235 10.0235 6.26445 9.93484C6.38655 9.8462 6.53354 9.79841 6.68442 9.79831H9.65942C9.78292 9.7983 9.90324 9.7591 10.003 9.68635C10.1028 9.6136 10.177 9.51105 10.2148 9.39347L11.1189 6.57539C11.1653 6.43118 11.2563 6.30542 11.3787 6.2162C11.5012 6.12699 11.6488 6.07892 11.8003 6.07892C11.9517 6.07892 12.0993 6.12699 12.2218 6.2162C12.3442 6.30542 12.4352 6.43118 12.4816 6.57539L13.3858 9.39347C13.4235 9.51105 13.4977 9.6136 13.5975 9.68635C13.6973 9.7591 13.8176 9.7983 13.9411 9.79831H16.9161C17.067 9.79841 17.214 9.8462 17.3361 9.93484C17.4582 10.0235 17.5491 10.1484 17.596 10.2919C17.6428 10.4353 17.6431 10.5899 17.5969 10.7335C17.5506 10.8771 17.4602 11.0024 17.3384 11.0916H17.3373Z" fill="#FFF8E7"/>
</g>
<defs>
<clipPath id="clip0_367_1558">
<rect width="14" height="14" fill="white" transform="translate(4.7998 4.80005)"/>
</clipPath>
</defs>
</svg>
