<svg width="170" height="44" viewBox="0 0 170 44" fill="none" xmlns="http://www.w3.org/2000/svg">
<g clip-path="url(#clip0_367_1690)">
<mask id="mask0_367_1690" style="mask-type:luminance" maskUnits="userSpaceOnUse" x="16" y="8" width="138" height="27">
<path d="M153.493 8.00098H16.0957V34.9874H153.493V8.00098Z" fill="white"/>
</mask>
<g mask="url(#mask0_367_1690)">
<path d="M43.4325 15.1384V16.4956C42.6516 15.4829 41.2082 14.7909 39.5303 14.7909C35.5715 14.7909 32.6226 18.2864 32.6226 22.3907C32.6226 26.4949 35.5419 29.9903 39.5303 29.9903C41.2052 29.9903 42.6516 29.3251 43.4325 28.2559V29.6132H48.3743V15.1384H43.4325ZM50.0789 8.72367V29.6161H55.193V21.9006C55.193 20.3979 55.9146 19.501 57.0699 19.501C58.225 19.501 58.8338 20.2821 58.8338 21.7254V29.6132H63.9478V20.5107C63.9478 16.9856 62.0412 14.788 58.9765 14.788C57.3281 14.788 56.0571 15.4235 55.1631 16.552V8.72367H50.0759H50.0789ZM96.8619 22.3907C96.8619 26.7266 93.5388 29.9903 89.1168 29.9903C84.6948 29.9903 81.3716 26.7236 81.3716 22.3907C81.3716 18.0577 84.6948 14.7909 89.1168 14.7909C93.5388 14.7909 96.8619 18.0577 96.8619 22.3907ZM80.5073 22.3907C80.5073 26.7266 77.1842 29.9903 72.7622 29.9903C68.3401 29.9903 65.017 26.7236 65.017 22.3907C65.017 18.0577 68.3401 14.7909 72.7622 14.7909C77.1842 14.7909 80.5073 18.0577 80.5073 22.3907ZM16.0957 15.1384L22.2788 29.7319L20.0544 34.9914H25.4862L33.7213 15.1384H28.3164L24.9635 23.635L21.6403 15.1384H16.0957ZM40.5697 25.3663C38.8651 25.3663 37.5642 24.0656 37.5642 22.3907C37.5642 20.7157 38.8651 19.4149 40.5697 19.4149C42.2743 19.4149 43.5453 20.7157 43.5453 22.3907C43.5453 24.0656 42.2446 25.3663 40.5697 25.3663ZM75.6488 22.3907C75.6488 20.7721 74.4341 19.4713 72.7592 19.4713C71.0842 19.4713 69.8695 20.7721 69.8695 22.3907C69.8695 24.0092 71.0842 25.3099 72.7592 25.3099C74.4341 25.3099 75.6488 24.0092 75.6488 22.3907ZM92.0034 22.3907C92.0034 20.7721 90.7887 19.4713 89.1138 19.4713C87.4388 19.4713 86.2241 20.7721 86.2241 22.3907C86.2241 24.0092 87.4388 25.3099 89.1138 25.3099C90.7887 25.3099 92.0034 24.0092 92.0034 22.3907ZM97.4945 26.5513C97.4945 28.3718 98.9111 29.8745 100.818 29.8745C102.724 29.8745 104.257 28.3154 104.257 26.4355C104.257 24.5556 102.84 23.1123 100.933 23.1123C99.0269 23.1123 97.4945 24.7011 97.4945 26.5513ZM104.776 8.7207L99.3446 21.8412H105.412L110.844 8.7207H104.776Z" fill="#522E5E"/>
<path d="M111.869 8.72559V29.6863H117.143L117.117 8.72559H111.869Z" fill="#522E5E"/>
<path d="M125.366 10.9292C125.366 9.3641 124.063 8.00098 122.379 8.00098C120.695 8.00098 119.421 9.33441 119.421 10.9292C119.421 12.524 120.754 13.8574 122.379 13.8574C124.003 13.8574 125.366 12.4943 125.366 10.9292ZM125.049 29.6863V15.1908H119.745V29.6863H125.049Z" fill="#522E5E"/>
<path d="M134.137 14.8447C134.137 13.3093 135.093 12.6411 136.31 12.6411C136.949 12.6411 137.469 12.7867 137.905 12.9886V8.61115C137.267 8.29338 136.31 8.11816 135.354 8.11816C131.268 8.11816 128.859 10.6395 128.859 14.7289V15.1922H126.917V19.4538H128.859V29.6877H134.137V19.4538H137.703V15.1922H134.137V14.8447Z" fill="#522E5E"/>
<path d="M148.447 24.7874C147.808 25.6279 147.084 25.9753 146.041 25.9753C144.649 25.9753 143.52 25.0755 143.431 23.7718H153.433C153.463 23.5104 153.492 23.1333 153.492 22.67C153.492 17.9154 150.419 14.7852 145.955 14.7852C141.492 14.7852 138.272 18.0609 138.272 22.468C138.272 26.8752 141.287 30.0914 146.015 30.0914C149.204 30.0914 151.58 28.8738 152.973 26.5248L148.45 24.7844L148.447 24.7874ZM143.461 20.7574C143.577 19.5695 144.592 18.7855 145.926 18.7855C147.259 18.7855 148.245 19.5695 148.361 20.7574H143.461Z" fill="#522E5E"/>
</g>
</g>
<defs>
<clipPath id="clip0_367_1690">
<rect width="137.824" height="26.9864" fill="white" transform="translate(16 8)"/>
</clipPath>
</defs>
</svg>
